<svg xmlns="http://www.w3.org/2000/svg" xmlns:xlink="http://www.w3.org/1999/xlink" width="500" zoomAndPan="magnify" viewBox="0 0 375 374.999991" height="500" preserveAspectRatio="xMidYMid meet" version="1.0"><defs><g/><clipPath id="6e1bca39ad"><path d="M 303 156 L 318 156 L 318 171 L 303 171 Z M 303 156 " clip-rule="nonzero"/></clipPath><clipPath id="398bf5a0d1"><path d="M 305.914062 153.597656 L 319.582031 158.453125 L 314.964844 171.445312 L 301.296875 166.589844 Z M 305.914062 153.597656 " clip-rule="nonzero"/></clipPath><clipPath id="5fb2893ace"><path d="M 312.851562 156.3125 L 313.378906 160.835938 C 313.386719 160.914062 313.4375 160.984375 313.507812 161.023438 L 317.535156 163.144531 C 317.707031 163.238281 317.703125 163.5 317.523438 163.574219 L 313.390625 165.476562 C 313.3125 165.503906 313.265625 165.574219 313.25 165.65625 L 312.464844 170.148438 C 312.429688 170.339844 312.1875 170.417969 312.054688 170.269531 L 308.964844 166.917969 C 308.910156 166.855469 308.832031 166.828125 308.753906 166.84375 L 304.238281 167.492188 C 304.042969 167.523438 303.902344 167.308594 303.996094 167.136719 L 306.222656 163.160156 C 306.261719 163.085938 306.265625 163.011719 306.226562 162.933594 L 304.230469 158.851562 C 304.144531 158.667969 304.300781 158.476562 304.492188 158.511719 L 308.957031 159.402344 C 309.039062 159.421875 309.113281 159.394531 309.175781 159.339844 L 312.4375 156.164062 C 312.582031 156.03125 312.824219 156.117188 312.851562 156.3125 Z M 312.851562 156.3125 " clip-rule="nonzero"/></clipPath><clipPath id="8b962ab22c"><path d="M 316 166 L 326 166 L 326 177 L 316 177 Z M 316 166 " clip-rule="nonzero"/></clipPath><clipPath id="54f4f09a39"><path d="M 317.652344 165.015625 L 326.679688 168.222656 L 323.632812 176.804688 L 314.605469 173.597656 Z M 317.652344 165.015625 " clip-rule="nonzero"/></clipPath><clipPath id="72bffb1418"><path d="M 322.238281 166.808594 L 322.585938 169.792969 C 322.589844 169.847656 322.621094 169.894531 322.671875 169.917969 L 325.328125 171.320312 C 325.441406 171.382812 325.441406 171.554688 325.320312 171.605469 L 322.589844 172.859375 C 322.542969 172.878906 322.511719 172.925781 322.5 172.980469 L 321.980469 175.945312 C 321.957031 176.074219 321.796875 176.125 321.710938 176.027344 L 319.667969 173.8125 C 319.632812 173.773438 319.582031 173.753906 319.527344 173.761719 L 316.546875 174.191406 C 316.417969 174.210938 316.324219 174.070312 316.386719 173.957031 L 317.859375 171.328125 C 317.882812 171.28125 317.886719 171.230469 317.859375 171.179688 L 316.542969 168.484375 C 316.484375 168.363281 316.585938 168.234375 316.714844 168.261719 L 319.664062 168.847656 C 319.714844 168.859375 319.765625 168.84375 319.808594 168.808594 L 321.964844 166.710938 C 322.058594 166.621094 322.21875 166.679688 322.238281 166.808594 Z M 322.238281 166.808594 " clip-rule="nonzero"/></clipPath><clipPath id="0e393c5a95"><path d="M 290 157 L 300 157 L 300 168 L 290 168 Z M 290 157 " clip-rule="nonzero"/></clipPath><clipPath id="e6ff1310e8"><path d="M 292.230469 155.976562 L 301.257812 159.1875 L 298.207031 167.769531 L 289.179688 164.558594 Z M 292.230469 155.976562 " clip-rule="nonzero"/></clipPath><clipPath id="27d8511c69"><path d="M 296.8125 157.773438 L 297.160156 160.757812 C 297.164062 160.8125 297.199219 160.859375 297.246094 160.882812 L 299.90625 162.285156 C 300.019531 162.347656 300.015625 162.519531 299.898438 162.570312 L 297.167969 163.824219 C 297.117188 163.84375 297.085938 163.890625 297.074219 163.945312 L 296.558594 166.910156 C 296.535156 167.039062 296.371094 167.089844 296.285156 166.992188 L 294.242188 164.777344 C 294.207031 164.738281 294.15625 164.71875 294.105469 164.726562 L 291.121094 165.15625 C 290.996094 165.175781 290.902344 165.035156 290.964844 164.921875 L 292.433594 162.292969 C 292.457031 162.246094 292.460938 162.195312 292.4375 162.144531 L 291.117188 159.449219 C 291.0625 159.328125 291.164062 159.199219 291.292969 159.226562 L 294.238281 159.8125 C 294.292969 159.824219 294.339844 159.808594 294.382812 159.773438 L 296.539062 157.675781 C 296.632812 157.585938 296.792969 157.644531 296.8125 157.773438 Z M 296.8125 157.773438 " clip-rule="nonzero"/></clipPath><clipPath id="f3a6bb69ca"><path d="M 151.519531 69.535156 L 223.519531 69.535156 L 223.519531 151 L 151.519531 151 Z M 151.519531 69.535156 " clip-rule="nonzero"/></clipPath><clipPath id="7339def0d7"><path d="M 171 150 L 204 150 L 204 170.785156 L 171 170.785156 Z M 171 150 " clip-rule="nonzero"/></clipPath><clipPath id="800d938aad"><path d="M 151.519531 69.535156 L 223.519531 69.535156 L 223.519531 151 L 151.519531 151 Z M 151.519531 69.535156 " clip-rule="nonzero"/></clipPath><clipPath id="f398558cc9"><path d="M 171 150 L 204 150 L 204 170.785156 L 171 170.785156 Z M 171 150 " clip-rule="nonzero"/></clipPath><clipPath id="4bf5753e2d"><path d="M 126.886719 46.214844 L 248.386719 46.214844 L 248.386719 121.964844 L 126.886719 121.964844 Z M 126.886719 46.214844 " clip-rule="nonzero"/></clipPath></defs><rect x="-37.5" width="450" fill="#ffffff" y="-37.499999" height="449.999989" fill-opacity="1"/><rect x="-37.5" width="450" fill="#ffffff" y="-37.499999" height="449.999989" fill-opacity="1"/><rect x="-37.5" width="450" fill="#aa77ff" y="-37.499999" height="449.999989" fill-opacity="1"/><g fill="#fcfdfd" fill-opacity="1"><g transform="translate(44.812502, 220.182348)"><g><path d="M 6.148438 12.203125 C 4.960938 11.285156 4.027344 10.171875 3.347656 8.867188 C 2.667969 7.5625 2.328125 6.15625 2.328125 4.652344 C 2.328125 2.945312 2.777344 1.390625 3.679688 -0.0117188 C 4.582031 -1.414062 5.84375 -2.515625 7.464844 -3.324219 C 9.089844 -4.132812 10.960938 -4.535156 13.082031 -4.535156 L 24.289062 -4.535156 L 24.261719 -7.835938 C 24.246094 -10.128906 23.761719 -12.132812 22.804688 -13.839844 C 21.847656 -15.550781 20.511719 -16.871094 18.804688 -17.804688 C 17.09375 -18.738281 15.097656 -19.207031 12.820312 -19.207031 L 3.203125 -19.207031 L 3.203125 -23.742188 L 13.058594 -23.742188 C 16.035156 -23.742188 18.710938 -23.082031 21.09375 -21.757812 C 23.476562 -20.4375 25.351562 -18.582031 26.722656 -16.191406 C 28.089844 -13.800781 28.78125 -11.085938 28.796875 -8.046875 L 28.820312 0 L 13.152344 0 C 11.160156 0 9.609375 0.433594 8.511719 1.304688 C 7.410156 2.175781 6.859375 3.292969 6.859375 4.652344 C 6.859375 5.507812 7.050781 6.28125 7.429688 6.96875 C 7.8125 7.65625 8.308594 8.230469 8.925781 8.6875 Z M 6.148438 12.203125 "/></g></g></g><g fill="#fcfdfd" fill-opacity="1"><g transform="translate(75.954528, 220.182348)"><g><path d="M 2.328125 -4.535156 L 16.691406 -4.535156 C 17.941406 -4.535156 18.878906 -4.957031 19.503906 -5.804688 C 20.128906 -6.652344 20.441406 -7.828125 20.441406 -9.332031 L 20.441406 -37.035156 L 24.976562 -37.035156 L 24.976562 -9.332031 C 24.976562 -7.828125 25.289062 -6.652344 25.914062 -5.804688 C 26.539062 -4.957031 27.476562 -4.535156 28.726562 -4.535156 L 29.984375 -4.535156 L 29.984375 0 L 28.726562 0 C 26.019531 0 24.019531 -1.078125 22.71875 -3.230469 C 21.390625 -1.078125 19.378906 0 16.691406 0 L 2.328125 0 Z M 4.9375 -34.664062 L 9.496094 -34.664062 L 9.496094 -6.980469 L 4.9375 -6.980469 Z M 4.9375 -34.664062 "/></g></g></g><g fill="#fcfdfd" fill-opacity="1"><g transform="translate(105.48248, 220.182348)"><g><path d="M -0.476562 -4.535156 L 7.550781 -4.535156 C 6.285156 -5.421875 5.273438 -6.570312 4.523438 -7.976562 C 3.769531 -9.386719 3.394531 -10.921875 3.394531 -12.582031 C 3.394531 -14.59375 3.898438 -16.453125 4.902344 -18.160156 C 5.90625 -19.871094 7.292969 -21.230469 9.058594 -22.234375 C 10.820312 -23.238281 12.773438 -23.742188 14.910156 -23.742188 C 17.125 -23.742188 19.140625 -23.203125 20.953125 -22.125 C 22.765625 -21.050781 24.1875 -19.582031 25.226562 -17.722656 C 26.261719 -15.863281 26.78125 -13.792969 26.78125 -11.515625 L 26.78125 -4.535156 L 31.410156 -4.535156 L 31.410156 0 L -0.476562 0 Z M 22.222656 -4.535156 L 22.222656 -11.871094 C 22.222656 -13.199219 21.898438 -14.425781 21.25 -15.550781 C 20.597656 -16.675781 19.714844 -17.566406 18.589844 -18.222656 C 17.464844 -18.878906 16.238281 -19.207031 14.910156 -19.207031 C 13.578125 -19.207031 12.351562 -18.878906 11.230469 -18.222656 C 10.105469 -17.566406 9.214844 -16.675781 8.558594 -15.550781 C 7.902344 -14.425781 7.574219 -13.199219 7.574219 -11.871094 C 7.574219 -10.542969 7.902344 -9.316406 8.558594 -8.191406 C 9.214844 -7.066406 10.105469 -6.175781 11.230469 -5.519531 C 12.351562 -4.863281 13.578125 -4.535156 14.910156 -4.535156 Z M 14.765625 -26.351562 C 13.992188 -26.351562 13.328125 -26.628906 12.773438 -27.183594 C 12.21875 -27.738281 11.941406 -28.402344 11.941406 -29.179688 C 11.941406 -29.96875 12.21875 -30.640625 12.773438 -31.195312 C 13.328125 -31.75 13.992188 -32.027344 14.765625 -32.027344 C 15.558594 -32.027344 16.230469 -31.75 16.785156 -31.195312 C 17.339844 -30.640625 17.617188 -29.96875 17.617188 -29.179688 C 17.617188 -28.402344 17.339844 -27.738281 16.785156 -27.183594 C 16.230469 -26.628906 15.558594 -26.351562 14.765625 -26.351562 Z M 14.765625 -26.351562 "/></g></g></g><g fill="#fcfdfd" fill-opacity="1"><g transform="translate(136.434615, 220.182348)"><g><path d="M -0.476562 -4.535156 L 0.808594 -4.535156 C 2.058594 -4.535156 2.992188 -4.957031 3.609375 -5.804688 C 4.226562 -6.652344 4.535156 -7.828125 4.535156 -9.332031 L 4.535156 -37.035156 L 9.09375 -37.035156 L 9.09375 -9.332031 C 9.09375 -7.460938 8.761719 -5.828125 8.097656 -4.429688 C 7.429688 -3.027344 6.472656 -1.9375 5.222656 -1.164062 C 3.972656 -0.386719 2.5 0 0.808594 0 L -0.476562 0 Z M -0.476562 -4.535156 "/></g></g></g><g fill="#fcfdfd" fill-opacity="1"><g transform="translate(149.584528, 220.182348)"><g><path d="M 3.871094 -37.035156 L 8.40625 -37.035156 L 8.40625 0 L 3.871094 0 Z M 3.871094 -37.035156 "/></g></g></g><g fill="#fcfdfd" fill-opacity="1"><g transform="translate(161.832452, 220.182348)"><g/></g></g><g fill="#fcfdfd" fill-opacity="1"><g transform="translate(174.792473, 220.182348)"><g><path d="M 14.199219 0 C 12.042969 0 10.058594 -0.527344 8.238281 -1.578125 C 6.417969 -2.632812 4.976562 -4.066406 3.917969 -5.886719 C 2.855469 -7.707031 2.328125 -9.695312 2.328125 -11.847656 C 2.328125 -14 2.855469 -15.984375 3.917969 -17.804688 C 4.976562 -19.625 6.417969 -21.070312 8.238281 -22.140625 C 10.058594 -23.207031 12.042969 -23.742188 14.199219 -23.742188 L 25.472656 -23.742188 L 25.472656 -9.332031 C 25.472656 -7.828125 25.78125 -6.652344 26.398438 -5.804688 C 27.015625 -4.957031 27.953125 -4.535156 29.203125 -4.535156 L 30.578125 -4.535156 L 30.578125 0 L 29.203125 0 C 27.570312 0 26.214844 -0.382812 25.128906 -1.152344 C 24.046875 -1.917969 23.25 -3.023438 22.742188 -4.464844 C 21.808594 -3.039062 20.597656 -1.9375 19.113281 -1.164062 C 17.625 -0.386719 15.984375 0 14.199219 0 Z M 14.199219 -4.535156 C 15.445312 -4.535156 16.582031 -4.832031 17.601562 -5.425781 C 18.625 -6.019531 19.433594 -6.875 20.027344 -7.988281 C 20.621094 -9.105469 20.917969 -10.398438 20.917969 -11.871094 L 20.917969 -19.207031 L 14.199219 -19.207031 C 12.867188 -19.207031 11.644531 -18.875 10.527344 -18.210938 C 9.414062 -17.542969 8.523438 -16.65625 7.859375 -15.539062 C 7.195312 -14.421875 6.859375 -13.199219 6.859375 -11.871094 C 6.859375 -10.542969 7.195312 -9.320312 7.859375 -8.203125 C 8.523438 -7.085938 9.414062 -6.195312 10.527344 -5.53125 C 11.644531 -4.867188 12.867188 -4.535156 14.199219 -4.535156 Z M 10.824219 -26.351562 C 10.085938 -26.351562 9.445312 -26.621094 8.90625 -27.164062 C 8.367188 -27.703125 8.097656 -28.34375 8.097656 -29.082031 C 8.097656 -29.84375 8.367188 -30.492188 8.90625 -31.03125 C 9.445312 -31.566406 10.085938 -31.835938 10.824219 -31.835938 C 11.601562 -31.835938 12.257812 -31.566406 12.796875 -31.03125 C 13.335938 -30.492188 13.605469 -29.84375 13.605469 -29.082031 C 13.605469 -28.34375 13.335938 -27.703125 12.796875 -27.164062 C 12.257812 -26.621094 11.601562 -26.351562 10.824219 -26.351562 Z M 18.851562 -26.351562 C 18.109375 -26.351562 17.472656 -26.621094 16.929688 -27.164062 C 16.390625 -27.703125 16.121094 -28.34375 16.121094 -29.082031 C 16.121094 -29.863281 16.390625 -30.515625 16.929688 -31.042969 C 17.472656 -31.574219 18.109375 -31.835938 18.851562 -31.835938 C 19.628906 -31.835938 20.28125 -31.574219 20.8125 -31.042969 C 21.339844 -30.515625 21.605469 -29.863281 21.605469 -29.082031 C 21.605469 -28.34375 21.339844 -27.703125 20.8125 -27.164062 C 20.28125 -26.621094 19.628906 -26.351562 18.851562 -26.351562 Z M 18.851562 -26.351562 "/></g></g></g><g fill="#fcfdfd" fill-opacity="1"><g transform="translate(204.8901, 220.182348)"><g><path d="M -0.476562 -4.535156 L 2.636719 -4.535156 C 3.871094 -4.535156 4.800781 -4.957031 5.425781 -5.804688 C 6.050781 -6.652344 6.363281 -7.828125 6.363281 -9.332031 L 6.363281 -23.71875 L 10.898438 -23.742188 L 10.898438 -9.332031 C 10.898438 -7.828125 11.210938 -6.652344 11.835938 -5.804688 C 12.460938 -4.957031 13.398438 -4.535156 14.648438 -4.535156 L 17.78125 -4.535156 L 17.78125 0 L 14.648438 0 C 11.941406 0 9.941406 -1.078125 8.640625 -3.230469 C 7.3125 -1.078125 5.308594 0 2.636719 0 L -0.476562 0 Z M 4.632812 9.472656 C 3.894531 9.472656 3.253906 9.203125 2.710938 8.664062 C 2.167969 8.128906 1.898438 7.476562 1.898438 6.71875 C 1.898438 5.980469 2.167969 5.339844 2.710938 4.796875 C 3.25 4.257812 3.890625 3.988281 4.628906 3.988281 C 5.390625 3.988281 6.039062 4.257812 6.578125 4.800781 C 7.113281 5.339844 7.382812 5.984375 7.382812 6.722656 C 7.382812 7.464844 7.109375 8.109375 6.566406 8.652344 C 6.019531 9.199219 5.375 9.472656 4.632812 9.472656 Z M 12.683594 9.472656 C 11.941406 9.472656 11.300781 9.203125 10.757812 8.664062 C 10.21875 8.128906 9.949219 7.476562 9.949219 6.71875 C 9.949219 5.980469 10.21875 5.339844 10.757812 4.796875 C 11.300781 4.257812 11.941406 3.988281 12.683594 3.988281 C 13.421875 3.988281 14.066406 4.257812 14.613281 4.800781 C 15.160156 5.339844 15.433594 5.984375 15.433594 6.722656 C 15.433594 7.464844 15.160156 8.109375 14.613281 8.652344 C 14.066406 9.199219 13.421875 9.472656 12.683594 9.472656 Z M 12.683594 9.472656 "/></g></g></g><g fill="#fcfdfd" fill-opacity="1"><g transform="translate(222.217599, 220.182348)"><g><path d="M -0.476562 -4.535156 L 6.625 -4.535156 C 5.46875 -5.324219 4.542969 -6.367188 3.847656 -7.65625 C 3.148438 -8.945312 2.800781 -10.34375 2.800781 -11.847656 C 2.800781 -14 3.332031 -15.984375 4.390625 -17.804688 C 5.453125 -19.625 6.894531 -21.070312 8.714844 -22.140625 C 10.53125 -23.207031 12.519531 -23.742188 14.671875 -23.742188 C 16.824219 -23.742188 18.8125 -23.207031 20.632812 -22.140625 C 22.453125 -21.070312 23.890625 -19.625 24.953125 -17.804688 C 26.011719 -15.984375 26.542969 -14 26.542969 -11.847656 L 26.542969 -8.261719 C 26.542969 -7.121094 26.84375 -6.214844 27.445312 -5.542969 C 28.046875 -4.871094 28.878906 -4.535156 29.9375 -4.535156 L 31.21875 -4.535156 L 31.21875 0 L 29.9375 0 C 28.308594 0 26.964844 -0.40625 25.914062 -1.222656 C 24.859375 -2.039062 24.160156 -3.179688 23.8125 -4.652344 C 22.769531 -3.214844 21.445312 -2.078125 19.847656 -1.246094 C 18.25 -0.414062 16.523438 0 14.671875 0 L -0.476562 0 Z M 14.671875 -4.535156 C 16 -4.535156 17.222656 -4.867188 18.332031 -5.53125 C 19.441406 -6.195312 20.328125 -7.085938 20.992188 -8.203125 C 21.652344 -9.316406 21.984375 -10.539062 21.984375 -11.871094 C 21.984375 -13.199219 21.652344 -14.421875 20.988281 -15.539062 C 20.328125 -16.652344 19.4375 -17.542969 18.324219 -18.207031 C 17.214844 -18.875 15.992188 -19.207031 14.667969 -19.207031 C 13.339844 -19.207031 12.121094 -18.875 11.003906 -18.210938 C 9.890625 -17.542969 9 -16.65625 8.332031 -15.539062 C 7.667969 -14.421875 7.335938 -13.199219 7.335938 -11.871094 C 7.335938 -10.542969 7.667969 -9.320312 8.332031 -8.203125 C 8.996094 -7.085938 9.886719 -6.195312 11.003906 -5.53125 C 12.121094 -4.867188 13.34375 -4.535156 14.671875 -4.535156 Z M 14.671875 -4.535156 "/></g></g></g><g fill="#fcfdfd" fill-opacity="1"><g transform="translate(252.979831, 220.182348)"><g><path d="M -0.476562 -4.535156 L 2.328125 -4.535156 C 3.59375 -4.535156 4.554688 -4.960938 5.210938 -5.816406 C 5.867188 -6.671875 6.195312 -7.84375 6.195312 -9.332031 L 6.195312 -23.742188 L 10.753906 -23.742188 L 10.753906 -9.332031 C 10.753906 -7.476562 10.40625 -5.847656 9.710938 -4.441406 C 9.015625 -3.03125 8.03125 -1.9375 6.765625 -1.164062 C 5.5 -0.386719 4.019531 0 2.328125 0 L -0.476562 0 Z M 4.371094 9.472656 C 3.632812 9.472656 2.992188 9.203125 2.449219 8.664062 C 1.910156 8.128906 1.636719 7.476562 1.636719 6.71875 C 1.636719 5.980469 1.910156 5.339844 2.449219 4.796875 C 2.992188 4.257812 3.632812 3.988281 4.371094 3.988281 C 5.113281 3.988281 5.757812 4.257812 6.304688 4.800781 C 6.847656 5.339844 7.121094 5.984375 7.121094 6.722656 C 7.121094 7.464844 6.847656 8.109375 6.304688 8.652344 C 5.757812 9.199219 5.113281 9.472656 4.371094 9.472656 Z M 12.421875 9.472656 C 11.679688 9.472656 11.039062 9.203125 10.5 8.664062 C 9.957031 8.128906 9.6875 7.476562 9.6875 6.71875 C 9.6875 5.980469 9.957031 5.339844 10.5 4.796875 C 11.039062 4.257812 11.679688 3.988281 12.421875 3.988281 C 13.160156 3.988281 13.804688 4.257812 14.351562 4.800781 C 14.898438 5.339844 15.171875 5.984375 15.171875 6.722656 C 15.171875 7.464844 14.898438 8.109375 14.351562 8.652344 C 13.804688 9.199219 13.160156 9.472656 12.421875 9.472656 Z M 12.421875 9.472656 "/></g></g></g><g fill="#fcfdfd" fill-opacity="1"><g transform="translate(267.553927, 220.182348)"><g><path d="M 1.921875 -4.535156 L 17.828125 -4.535156 L 17.828125 -10.992188 C 17.828125 -12.621094 17.523438 -14.058594 16.914062 -15.300781 C 16.304688 -16.542969 15.449219 -17.503906 14.339844 -18.1875 C 13.230469 -18.867188 11.957031 -19.207031 10.515625 -19.207031 C 9.695312 -19.207031 8.925781 -19.101562 8.214844 -18.886719 C 7.503906 -18.671875 6.804688 -18.359375 6.125 -17.949219 C 6.09375 -17.949219 6.074219 -17.941406 6.066406 -17.925781 C 6.058594 -17.910156 6.039062 -17.894531 6.007812 -17.878906 L 4.105469 -21.867188 C 6.023438 -23.117188 8.160156 -23.742188 10.515625 -23.742188 C 12.765625 -23.742188 14.792969 -23.195312 16.605469 -22.101562 C 18.417969 -21.011719 19.835938 -19.496094 20.855469 -17.558594 C 21.878906 -15.617188 22.386719 -13.429688 22.386719 -10.992188 L 22.386719 0 L 1.921875 0 Z M 1.921875 -4.535156 "/></g></g></g><g fill="#fcfdfd" fill-opacity="1"><g transform="translate(291.954835, 220.182348)"><g><path d="M 12.132812 0 C 10.4375 0 8.96875 -0.386719 7.726562 -1.164062 C 6.484375 -1.9375 5.53125 -3.027344 4.867188 -4.429688 C 4.203125 -5.828125 3.871094 -7.460938 3.871094 -9.332031 L 3.871094 -37.035156 L 8.40625 -37.035156 L 8.40625 -9.332031 C 8.40625 -7.828125 8.71875 -6.652344 9.34375 -5.804688 C 9.96875 -4.957031 10.898438 -4.535156 12.132812 -4.535156 L 13.320312 -4.535156 L 13.320312 0 Z M 12.132812 0 "/></g></g></g><g fill="#fcfdfd" fill-opacity="1"><g transform="translate(304.819915, 220.182348)"><g><path d="M -0.476562 -4.535156 L 24.144531 -4.535156 L 24.121094 -7.835938 C 24.105469 -10.128906 23.617188 -12.132812 22.660156 -13.839844 C 21.703125 -15.550781 20.371094 -16.871094 18.660156 -17.804688 C 16.953125 -18.738281 14.957031 -19.207031 12.679688 -19.207031 L 3.394531 -19.207031 L 3.394531 -23.742188 L 18.398438 -37.035156 L 24.523438 -37.035156 L 9.332031 -23.742188 L 12.914062 -23.742188 C 15.890625 -23.742188 18.570312 -23.082031 20.953125 -21.757812 C 23.332031 -20.4375 25.210938 -18.582031 26.578125 -16.191406 C 27.949219 -13.800781 28.640625 -11.085938 28.65625 -8.046875 L 28.679688 0 L -0.476562 0 Z M -0.476562 -4.535156 "/></g></g></g><g fill="#fcfdfd" fill-opacity="1"><g transform="translate(335.819532, 220.182348)"><g><path d="M 3.871094 -37.035156 L 8.40625 -37.035156 L 8.40625 0 L 3.871094 0 Z M 3.871094 -37.035156 "/></g></g></g><g clip-path="url(#6e1bca39ad)"><g clip-path="url(#398bf5a0d1)"><g clip-path="url(#5fb2893ace)"><path fill="#272b21" d="M 305.976562 153.726562 L 319.453125 158.515625 L 314.902344 171.316406 L 301.429688 166.527344 Z M 305.976562 153.726562 " fill-opacity="1" fill-rule="nonzero"/></g></g></g><g clip-path="url(#8b962ab22c)"><g clip-path="url(#54f4f09a39)"><g clip-path="url(#72bffb1418)"><path fill="#272b21" d="M 317.695312 165.101562 L 326.59375 168.261719 L 323.589844 176.71875 L 314.691406 173.554688 Z M 317.695312 165.101562 " fill-opacity="1" fill-rule="nonzero"/></g></g></g><g clip-path="url(#0e393c5a95)"><g clip-path="url(#e6ff1310e8)"><g clip-path="url(#27d8511c69)"><path fill="#272b21" d="M 292.269531 156.066406 L 301.171875 159.226562 L 298.167969 167.683594 L 289.265625 164.519531 Z M 292.269531 156.066406 " fill-opacity="1" fill-rule="nonzero"/></g></g></g><g clip-path="url(#f3a6bb69ca)"><path fill="#f19e05" d="M 186.265625 96.707031 C 185.226562 96.984375 184.601562 98.058594 184.882812 99.097656 L 186.382812 104.675781 C 186.660156 105.714844 187.742188 106.335938 188.78125 106.058594 C 189.820312 105.777344 190.445312 104.703125 190.167969 103.667969 L 188.664062 98.085938 C 188.386719 97.046875 187.308594 96.429688 186.265625 96.707031 Z M 191.375 96.707031 C 190.332031 96.984375 189.710938 98.058594 189.988281 99.097656 L 191.488281 104.675781 C 191.765625 105.714844 192.847656 106.335938 193.886719 106.058594 C 194.925781 105.777344 195.550781 104.703125 195.269531 103.667969 L 193.773438 98.085938 C 193.492188 97.046875 192.414062 96.429688 191.375 96.707031 Z M 181.160156 96.707031 C 180.121094 96.984375 179.496094 98.058594 179.777344 99.097656 L 181.277344 104.675781 C 181.554688 105.714844 182.632812 106.335938 183.675781 106.058594 C 184.714844 105.777344 185.339844 104.703125 185.058594 103.667969 L 183.558594 98.085938 C 183.28125 97.046875 182.199219 96.429688 181.160156 96.707031 Z M 187.519531 69.523438 L 187.527344 69.523438 C 207.398438 69.523438 223.507812 85.574219 223.507812 105.378906 C 223.507812 116.632812 218.371094 126.75 210.171875 133.246094 C 205.035156 137.3125 201.421875 142.792969 200.65625 150.976562 L 196.574219 150.976562 L 202.914062 104.378906 C 202.953125 104.105469 202.96875 103.855469 202.96875 103.636719 C 202.96875 102.359375 202.519531 101.199219 201.742188 100.308594 C 200.964844 99.414062 199.875 98.804688 198.601562 98.632812 C 198.339844 98.601562 198.09375 98.582031 197.867188 98.582031 C 196.898438 98.582031 196.113281 99.363281 196.113281 100.328125 C 196.113281 101.292969 196.898438 102.078125 197.867188 102.078125 C 197.984375 102.078125 198.074219 102.082031 198.136719 102.089844 C 198.535156 102.144531 198.867188 102.324219 199.097656 102.589844 C 199.328125 102.851562 199.460938 103.21875 199.460938 103.636719 C 199.460938 103.75 199.457031 103.84375 199.445312 103.917969 L 193.042969 150.976562 L 182.003906 150.976562 L 175.601562 103.917969 C 175.589844 103.84375 175.585938 103.75 175.585938 103.636719 C 175.585938 103.21875 175.722656 102.851562 175.949219 102.589844 C 176.179688 102.324219 176.511719 102.144531 176.910156 102.089844 C 176.976562 102.082031 177.0625 102.078125 177.179688 102.078125 C 178.148438 102.078125 178.933594 101.292969 178.933594 100.328125 C 178.933594 99.363281 178.148438 98.582031 177.179688 98.582031 C 176.953125 98.582031 176.707031 98.601562 176.445312 98.632812 C 175.171875 98.804688 174.082031 99.414062 173.304688 100.308594 C 172.53125 101.199219 172.078125 102.359375 172.078125 103.636719 C 172.078125 103.855469 172.09375 104.105469 172.132812 104.378906 L 178.472656 150.976562 L 174.394531 150.976562 C 173.625 142.792969 170.015625 137.3125 164.875 133.246094 C 156.675781 126.75 151.539062 116.632812 151.539062 105.378906 C 151.539062 85.574219 167.648438 69.523438 187.519531 69.523438 " fill-opacity="1" fill-rule="evenodd"/></g><g clip-path="url(#7339def0d7)"><path fill="#002130" d="M 173.824219 163.191406 L 201.222656 163.191406 C 202.339844 163.191406 203.25 162.28125 203.25 161.167969 L 203.25 160.585938 C 203.25 159.472656 202.339844 158.5625 201.222656 158.5625 L 173.824219 158.5625 C 172.710938 158.5625 171.796875 159.472656 171.796875 160.585938 L 171.796875 161.167969 C 171.796875 162.28125 172.710938 163.191406 173.824219 163.191406 Z M 180.878906 170.777344 L 194.167969 170.777344 C 196.96875 170.777344 199.324219 168.785156 199.878906 166.152344 L 175.167969 166.152344 C 175.722656 168.785156 178.078125 170.777344 180.878906 170.777344 Z M 200.65625 150.976562 L 201.222656 150.976562 C 202.339844 150.976562 203.25 151.886719 203.25 153 L 203.25 153.582031 C 203.25 154.695312 202.339844 155.605469 201.222656 155.605469 L 173.824219 155.605469 C 172.710938 155.605469 171.796875 154.695312 171.796875 153.582031 L 171.796875 153 C 171.796875 151.886719 172.710938 150.976562 173.824219 150.976562 L 200.65625 150.976562 " fill-opacity="1" fill-rule="evenodd"/></g><g clip-path="url(#800d938aad)"><path fill="#f19e05" d="M 186.265625 96.707031 C 185.226562 96.984375 184.601562 98.058594 184.882812 99.097656 L 186.382812 104.675781 C 186.660156 105.714844 187.742188 106.335938 188.78125 106.058594 C 189.820312 105.777344 190.445312 104.703125 190.167969 103.667969 L 188.664062 98.085938 C 188.386719 97.046875 187.308594 96.429688 186.265625 96.707031 Z M 191.375 96.707031 C 190.332031 96.984375 189.710938 98.058594 189.988281 99.097656 L 191.488281 104.675781 C 191.765625 105.714844 192.847656 106.335938 193.886719 106.058594 C 194.925781 105.777344 195.550781 104.703125 195.269531 103.667969 L 193.773438 98.085938 C 193.492188 97.046875 192.414062 96.429688 191.375 96.707031 Z M 181.160156 96.707031 C 180.121094 96.984375 179.496094 98.058594 179.777344 99.097656 L 181.277344 104.675781 C 181.554688 105.714844 182.632812 106.335938 183.675781 106.058594 C 184.714844 105.777344 185.339844 104.703125 185.058594 103.667969 L 183.558594 98.085938 C 183.28125 97.046875 182.199219 96.429688 181.160156 96.707031 Z M 187.519531 69.523438 L 187.527344 69.523438 C 207.398438 69.523438 223.507812 85.574219 223.507812 105.378906 C 223.507812 116.632812 218.371094 126.75 210.171875 133.246094 C 205.035156 137.3125 201.421875 142.792969 200.65625 150.976562 L 196.574219 150.976562 L 202.914062 104.378906 C 202.953125 104.105469 202.96875 103.855469 202.96875 103.636719 C 202.96875 102.359375 202.519531 101.199219 201.742188 100.308594 C 200.964844 99.414062 199.875 98.804688 198.601562 98.632812 C 198.339844 98.601562 198.09375 98.582031 197.867188 98.582031 C 196.898438 98.582031 196.113281 99.363281 196.113281 100.328125 C 196.113281 101.292969 196.898438 102.078125 197.867188 102.078125 C 197.984375 102.078125 198.074219 102.082031 198.136719 102.089844 C 198.535156 102.144531 198.867188 102.324219 199.097656 102.589844 C 199.328125 102.851562 199.460938 103.21875 199.460938 103.636719 C 199.460938 103.75 199.457031 103.84375 199.445312 103.917969 L 193.042969 150.976562 L 182.003906 150.976562 L 175.601562 103.917969 C 175.589844 103.84375 175.585938 103.75 175.585938 103.636719 C 175.585938 103.21875 175.722656 102.851562 175.949219 102.589844 C 176.179688 102.324219 176.511719 102.144531 176.910156 102.089844 C 176.976562 102.082031 177.0625 102.078125 177.179688 102.078125 C 178.148438 102.078125 178.933594 101.292969 178.933594 100.328125 C 178.933594 99.363281 178.148438 98.582031 177.179688 98.582031 C 176.953125 98.582031 176.707031 98.601562 176.445312 98.632812 C 175.171875 98.804688 174.082031 99.414062 173.304688 100.308594 C 172.53125 101.199219 172.078125 102.359375 172.078125 103.636719 C 172.078125 103.855469 172.09375 104.105469 172.132812 104.378906 L 178.472656 150.976562 L 174.394531 150.976562 C 173.625 142.792969 170.015625 137.3125 164.875 133.246094 C 156.675781 126.75 151.539062 116.632812 151.539062 105.378906 C 151.539062 85.574219 167.648438 69.523438 187.519531 69.523438 " fill-opacity="1" fill-rule="evenodd"/></g><g clip-path="url(#f398558cc9)"><path fill="#002130" d="M 173.824219 163.191406 L 201.222656 163.191406 C 202.339844 163.191406 203.25 162.28125 203.25 161.167969 L 203.25 160.585938 C 203.25 159.472656 202.339844 158.5625 201.222656 158.5625 L 173.824219 158.5625 C 172.710938 158.5625 171.796875 159.472656 171.796875 160.585938 L 171.796875 161.167969 C 171.796875 162.28125 172.710938 163.191406 173.824219 163.191406 Z M 180.878906 170.777344 L 194.167969 170.777344 C 196.96875 170.777344 199.324219 168.785156 199.878906 166.152344 L 175.167969 166.152344 C 175.722656 168.785156 178.078125 170.777344 180.878906 170.777344 Z M 200.65625 150.976562 L 201.222656 150.976562 C 202.339844 150.976562 203.25 151.886719 203.25 153 L 203.25 153.582031 C 203.25 154.695312 202.339844 155.605469 201.222656 155.605469 L 173.824219 155.605469 C 172.710938 155.605469 171.796875 154.695312 171.796875 153.582031 L 171.796875 153 C 171.796875 151.886719 172.710938 150.976562 173.824219 150.976562 L 200.65625 150.976562 " fill-opacity="1" fill-rule="evenodd"/></g><g clip-path="url(#4bf5753e2d)"><path fill="#f19e05" d="M 161.71875 62.628906 C 161.578125 62.390625 161.664062 62.082031 161.902344 61.945312 C 162.144531 61.804688 162.449219 61.886719 162.589844 62.128906 L 164.324219 65.132812 C 164.460938 65.375 164.378906 65.679688 164.136719 65.816406 C 163.898438 65.957031 163.589844 65.875 163.453125 65.632812 Z M 151.242188 70.835938 L 153.691406 73.289062 C 153.890625 73.484375 154.210938 73.484375 154.40625 73.289062 C 154.601562 73.089844 154.601562 72.773438 154.40625 72.574219 L 151.953125 70.121094 C 151.757812 69.925781 151.4375 69.925781 151.242188 70.121094 C 151.042969 70.320312 151.042969 70.640625 151.242188 70.835938 Z M 143.246094 81.46875 L 146.25 83.203125 C 146.488281 83.34375 146.796875 83.261719 146.9375 83.019531 C 147.074219 82.78125 146.992188 82.472656 146.753906 82.335938 L 143.75 80.597656 C 143.507812 80.460938 143.199219 80.542969 143.0625 80.78125 C 142.921875 81.023438 143.003906 81.332031 143.246094 81.46875 Z M 138.273438 93.8125 C 138.007812 93.742188 137.847656 93.464844 137.917969 93.199219 C 137.988281 92.929688 138.265625 92.769531 138.535156 92.839844 L 141.886719 93.738281 C 142.152344 93.8125 142.3125 94.085938 142.242188 94.355469 C 142.171875 94.625 141.894531 94.785156 141.625 94.710938 Z M 136.667969 107.023438 C 136.390625 107.023438 136.164062 106.796875 136.164062 106.519531 C 136.164062 106.242188 136.390625 106.015625 136.667969 106.015625 L 140.136719 106.015625 C 140.414062 106.015625 140.640625 106.242188 140.640625 106.519531 C 140.640625 106.796875 140.414062 107.023438 140.136719 107.023438 Z M 138.535156 120.199219 C 138.265625 120.269531 137.988281 120.109375 137.917969 119.839844 C 137.847656 119.574219 138.007812 119.296875 138.273438 119.226562 L 141.625 118.328125 C 141.894531 118.253906 142.171875 118.414062 142.242188 118.683594 C 142.3125 118.953125 142.152344 119.226562 141.886719 119.300781 Z M 143.746094 132.4375 C 143.507812 132.578125 143.199219 132.496094 143.0625 132.253906 C 142.921875 132.015625 143.007812 131.707031 143.246094 131.570312 L 146.25 129.835938 C 146.492188 129.695312 146.796875 129.78125 146.9375 130.019531 C 147.074219 130.261719 146.992188 130.566406 146.75 130.703125 Z M 151.953125 142.917969 L 154.40625 140.464844 C 154.601562 140.265625 154.601562 139.949219 154.40625 139.75 C 154.207031 139.554688 153.890625 139.554688 153.691406 139.75 L 151.238281 142.203125 C 151.042969 142.402344 151.042969 142.71875 151.238281 142.917969 C 151.4375 143.113281 151.757812 143.113281 151.953125 142.917969 Z M 162.585938 150.914062 L 164.324219 147.910156 C 164.460938 147.667969 164.378906 147.359375 164.140625 147.222656 C 163.898438 147.082031 163.589844 147.164062 163.453125 147.40625 L 161.71875 150.410156 C 161.578125 150.648438 161.660156 150.957031 161.902344 151.097656 C 162.140625 151.234375 162.449219 151.152344 162.585938 150.914062 Z M 174.933594 155.882812 C 174.859375 156.148438 174.585938 156.308594 174.316406 156.238281 C 174.046875 156.167969 173.886719 155.890625 173.957031 155.621094 L 174.855469 152.269531 C 174.929688 152.003906 175.203125 151.84375 175.472656 151.914062 C 175.742188 151.988281 175.902344 152.261719 175.828125 152.53125 Z M 188.140625 157.488281 C 188.140625 157.765625 187.914062 157.992188 187.636719 157.992188 C 187.359375 157.992188 187.132812 157.765625 187.132812 157.488281 L 187.132812 154.019531 C 187.132812 153.742188 187.359375 153.515625 187.636719 153.515625 C 187.914062 153.515625 188.140625 153.742188 188.140625 154.019531 Z M 201.316406 155.621094 C 201.386719 155.890625 201.226562 156.167969 200.957031 156.238281 C 200.691406 156.308594 200.414062 156.148438 200.34375 155.882812 L 199.445312 152.53125 C 199.371094 152.261719 199.53125 151.988281 199.800781 151.914062 C 200.070312 151.84375 200.34375 152.003906 200.417969 152.269531 Z M 213.558594 150.40625 C 213.695312 150.648438 213.613281 150.957031 213.375 151.09375 C 213.132812 151.234375 212.824219 151.152344 212.6875 150.910156 L 210.953125 147.90625 C 210.8125 147.667969 210.894531 147.359375 211.136719 147.21875 C 211.375 147.082031 211.683594 147.164062 211.824219 147.402344 Z M 224.035156 142.203125 L 221.582031 139.75 C 221.382812 139.554688 221.066406 139.554688 220.867188 139.75 C 220.671875 139.949219 220.671875 140.265625 220.867188 140.464844 L 223.320312 142.917969 C 223.519531 143.113281 223.835938 143.113281 224.035156 142.917969 C 224.230469 142.71875 224.230469 142.402344 224.035156 142.203125 Z M 232.03125 131.570312 L 229.023438 129.835938 C 228.785156 129.695312 228.476562 129.777344 228.335938 130.019531 C 228.199219 130.257812 228.28125 130.566406 228.519531 130.703125 L 231.523438 132.4375 C 231.765625 132.578125 232.074219 132.496094 232.214844 132.257812 C 232.351562 132.015625 232.269531 131.707031 232.03125 131.570312 Z M 237 119.226562 C 237.269531 119.296875 237.425781 119.574219 237.355469 119.839844 C 237.285156 120.109375 237.007812 120.269531 236.738281 120.199219 L 233.386719 119.300781 C 233.121094 119.226562 232.960938 118.953125 233.03125 118.683594 C 233.105469 118.414062 233.378906 118.253906 233.648438 118.328125 Z M 238.605469 106.015625 C 238.882812 106.015625 239.109375 106.242188 239.109375 106.519531 C 239.109375 106.796875 238.882812 107.023438 238.605469 107.023438 L 235.136719 107.023438 C 234.859375 107.023438 234.632812 106.796875 234.632812 106.519531 C 234.632812 106.242188 234.859375 106.015625 235.136719 106.015625 Z M 236.738281 92.839844 C 237.007812 92.769531 237.285156 92.929688 237.355469 93.199219 C 237.425781 93.464844 237.269531 93.742188 237 93.8125 L 233.648438 94.710938 C 233.378906 94.785156 233.105469 94.625 233.03125 94.355469 C 232.960938 94.085938 233.121094 93.8125 233.386719 93.738281 Z M 231.527344 80.601562 C 231.769531 80.460938 232.074219 80.546875 232.214844 80.785156 C 232.351562 81.023438 232.269531 81.332031 232.027344 81.46875 L 229.023438 83.203125 C 228.785156 83.34375 228.476562 83.261719 228.339844 83.019531 C 228.199219 82.777344 228.285156 82.472656 228.523438 82.335938 Z M 223.320312 70.121094 L 220.867188 72.574219 C 220.671875 72.773438 220.671875 73.09375 220.867188 73.289062 C 221.066406 73.484375 221.382812 73.484375 221.582031 73.289062 L 224.035156 70.835938 C 224.230469 70.640625 224.230469 70.320312 224.035156 70.121094 C 223.835938 69.925781 223.519531 69.925781 223.320312 70.121094 Z M 212.6875 62.128906 L 210.953125 65.132812 C 210.8125 65.375 210.898438 65.679688 211.136719 65.816406 C 211.378906 65.957031 211.683594 65.875 211.824219 65.632812 L 213.558594 62.628906 C 213.695312 62.390625 213.613281 62.082031 213.371094 61.945312 C 213.132812 61.804688 212.824219 61.890625 212.6875 62.128906 Z M 199.808594 57.015625 C 199.878906 56.75 200.15625 56.589844 200.425781 56.660156 C 200.691406 56.730469 200.851562 57.007812 200.78125 57.277344 L 199.882812 60.628906 C 199.8125 60.894531 199.535156 61.054688 199.265625 60.984375 C 199 60.910156 198.839844 60.636719 198.910156 60.367188 Z M 175.59375 63.515625 C 175.523438 63.25 175.679688 62.972656 175.949219 62.902344 C 176.21875 62.828125 176.496094 62.988281 176.566406 63.257812 L 177.414062 66.421875 C 177.484375 66.691406 177.328125 66.96875 177.058594 67.039062 C 176.789062 67.109375 176.511719 66.953125 176.441406 66.683594 Z M 164.875 68.101562 L 166.492188 70.902344 C 166.632812 71.140625 166.9375 71.222656 167.179688 71.085938 C 167.421875 70.945312 167.503906 70.636719 167.363281 70.398438 L 165.746094 67.597656 C 165.605469 67.355469 165.296875 67.273438 165.058594 67.414062 C 164.816406 67.550781 164.734375 67.859375 164.875 68.101562 Z M 155.707031 75.300781 C 155.507812 75.105469 155.507812 74.785156 155.707031 74.589844 C 155.902344 74.390625 156.222656 74.390625 156.417969 74.589844 L 158.664062 76.832031 C 158.859375 77.027344 158.859375 77.347656 158.664062 77.542969 C 158.464844 77.742188 158.144531 77.742188 157.949219 77.542969 Z M 148.714844 84.628906 L 151.378906 86.167969 C 151.621094 86.304688 151.925781 86.222656 152.066406 85.980469 C 152.203125 85.742188 152.121094 85.433594 151.878906 85.296875 L 149.214844 83.757812 C 148.976562 83.621094 148.667969 83.703125 148.53125 83.941406 C 148.390625 84.183594 148.476562 84.488281 148.714844 84.628906 Z M 144.375 95.449219 C 144.105469 95.378906 143.945312 95.101562 144.019531 94.832031 C 144.089844 94.5625 144.367188 94.40625 144.632812 94.476562 L 147.496094 95.242188 C 147.765625 95.316406 147.925781 95.589844 147.855469 95.859375 C 147.78125 96.128906 147.507812 96.289062 147.238281 96.214844 Z M 142.984375 107.023438 C 142.703125 107.023438 142.480469 106.796875 142.480469 106.519531 C 142.480469 106.242188 142.703125 106.015625 142.984375 106.015625 L 145.84375 106.015625 C 146.121094 106.015625 146.347656 106.242188 146.347656 106.519531 C 146.347656 106.796875 146.121094 107.023438 145.84375 107.023438 Z M 144.632812 118.5625 C 144.367188 118.636719 144.089844 118.476562 144.019531 118.207031 C 143.945312 117.9375 144.105469 117.664062 144.375 117.589844 L 147.015625 116.882812 C 147.285156 116.8125 147.558594 116.972656 147.632812 117.238281 C 147.703125 117.507812 147.542969 117.785156 147.273438 117.855469 Z M 149.21875 129.28125 L 151.496094 127.96875 C 151.734375 127.828125 151.816406 127.519531 151.679688 127.28125 C 151.539062 127.039062 151.230469 126.957031 150.992188 127.097656 L 148.714844 128.410156 C 148.472656 128.550781 148.390625 128.859375 148.53125 129.097656 C 148.667969 129.339844 148.976562 129.421875 149.21875 129.28125 Z M 156.417969 138.453125 C 156.222656 138.648438 155.902344 138.648438 155.707031 138.453125 C 155.507812 138.253906 155.507812 137.933594 155.707031 137.738281 L 157.503906 135.9375 C 157.703125 135.742188 158.019531 135.742188 158.21875 135.9375 C 158.414062 136.136719 158.414062 136.453125 158.21875 136.652344 Z M 165.746094 145.445312 L 166.980469 143.304688 C 167.117188 143.066406 167.035156 142.757812 166.796875 142.621094 C 166.554688 142.480469 166.25 142.5625 166.109375 142.800781 L 164.875 144.941406 C 164.734375 145.179688 164.816406 145.488281 165.058594 145.625 C 165.296875 145.765625 165.605469 145.683594 165.746094 145.445312 Z M 176.566406 149.78125 C 176.496094 150.050781 176.21875 150.210938 175.949219 150.136719 C 175.679688 150.066406 175.523438 149.789062 175.59375 149.523438 L 176.21875 147.1875 C 176.292969 146.917969 176.566406 146.757812 176.835938 146.828125 C 177.105469 146.902344 177.265625 147.175781 177.191406 147.445312 Z M 188.140625 151.171875 C 188.140625 151.453125 187.914062 151.679688 187.636719 151.679688 C 187.359375 151.679688 187.132812 151.453125 187.132812 151.171875 L 187.132812 148.761719 C 187.132812 148.484375 187.359375 148.257812 187.636719 148.257812 C 187.914062 148.257812 188.140625 148.484375 188.140625 148.761719 Z M 199.679688 149.523438 C 199.753906 149.789062 199.59375 150.066406 199.324219 150.136719 C 199.054688 150.210938 198.78125 150.050781 198.707031 149.78125 L 198.082031 147.445312 C 198.011719 147.175781 198.167969 146.902344 198.4375 146.828125 C 198.707031 146.757812 198.984375 146.917969 199.054688 147.1875 Z M 210.398438 144.9375 L 209.167969 142.800781 C 209.027344 142.5625 208.71875 142.480469 208.480469 142.617188 C 208.238281 142.757812 208.15625 143.066406 208.296875 143.304688 L 209.527344 145.441406 C 209.667969 145.683594 209.976562 145.765625 210.214844 145.625 C 210.457031 145.488281 210.539062 145.179688 210.398438 144.9375 Z M 219.570312 137.738281 C 219.765625 137.933594 219.765625 138.253906 219.570312 138.449219 C 219.371094 138.648438 219.054688 138.648438 218.855469 138.449219 L 217.058594 136.652344 C 216.859375 136.453125 216.859375 136.136719 217.058594 135.9375 C 217.253906 135.742188 217.574219 135.742188 217.769531 135.9375 Z M 226.558594 128.410156 L 224.28125 127.097656 C 224.042969 126.957031 223.734375 127.042969 223.59375 127.28125 C 223.457031 127.523438 223.539062 127.828125 223.78125 127.964844 L 226.058594 129.28125 C 226.300781 129.417969 226.605469 129.335938 226.742188 129.097656 C 226.882812 128.855469 226.796875 128.550781 226.558594 128.410156 Z M 230.898438 117.589844 C 231.167969 117.664062 231.328125 117.9375 231.257812 118.207031 C 231.183594 118.476562 230.910156 118.636719 230.640625 118.5625 L 228 117.855469 C 227.730469 117.785156 227.570312 117.507812 227.644531 117.238281 C 227.714844 116.972656 227.992188 116.8125 228.257812 116.882812 Z M 232.292969 106.015625 C 232.570312 106.015625 232.796875 106.242188 232.796875 106.519531 C 232.796875 106.796875 232.570312 107.023438 232.292969 107.023438 L 229.429688 107.023438 C 229.152344 107.023438 228.925781 106.796875 228.925781 106.519531 C 228.925781 106.242188 229.152344 106.015625 229.429688 106.015625 Z M 230.640625 94.476562 C 230.910156 94.402344 231.183594 94.5625 231.257812 94.832031 C 231.328125 95.101562 231.167969 95.378906 230.898438 95.449219 L 228.035156 96.214844 C 227.769531 96.289062 227.492188 96.128906 227.421875 95.859375 C 227.347656 95.589844 227.507812 95.316406 227.777344 95.242188 Z M 226.058594 83.757812 L 223.394531 85.296875 C 223.152344 85.433594 223.070312 85.742188 223.210938 85.984375 C 223.347656 86.222656 223.65625 86.304688 223.898438 86.167969 L 226.5625 84.628906 C 226.800781 84.488281 226.882812 84.179688 226.742188 83.941406 C 226.605469 83.699219 226.296875 83.617188 226.058594 83.757812 Z M 218.855469 74.589844 L 216.613281 76.832031 C 216.414062 77.027344 216.414062 77.347656 216.613281 77.542969 C 216.808594 77.742188 217.128906 77.742188 217.324219 77.542969 L 219.570312 75.300781 C 219.765625 75.105469 219.765625 74.785156 219.570312 74.589844 C 219.371094 74.390625 219.054688 74.390625 218.855469 74.589844 Z M 209.527344 67.597656 L 207.910156 70.398438 C 207.773438 70.640625 207.855469 70.945312 208.097656 71.085938 C 208.335938 71.222656 208.644531 71.140625 208.78125 70.898438 L 210.398438 68.097656 C 210.539062 67.859375 210.453125 67.550781 210.214844 67.414062 C 209.972656 67.273438 209.667969 67.359375 209.527344 67.597656 Z M 198.175781 63.117188 C 198.246094 62.847656 198.523438 62.6875 198.789062 62.761719 C 199.058594 62.832031 199.21875 63.109375 199.148438 63.375 L 198.296875 66.546875 C 198.226562 66.8125 197.949219 66.972656 197.679688 66.902344 C 197.414062 66.828125 197.253906 66.554688 197.324219 66.285156 Z M 187.132812 55.550781 C 187.132812 55.273438 187.359375 55.046875 187.636719 55.046875 C 187.917969 55.046875 188.140625 55.273438 188.140625 55.550781 L 188.140625 59.019531 C 188.140625 59.296875 187.917969 59.523438 187.636719 59.523438 C 187.359375 59.523438 187.132812 59.296875 187.132812 59.019531 Z M 187.132812 61.867188 C 187.132812 61.585938 187.359375 61.363281 187.636719 61.363281 C 187.917969 61.363281 188.140625 61.585938 188.140625 61.867188 L 188.140625 65.164062 C 188.140625 65.445312 187.917969 65.671875 187.636719 65.671875 C 187.359375 65.671875 187.132812 65.445312 187.132812 65.164062 Z M 180.144531 167.261719 C 180.109375 167.535156 179.855469 167.730469 179.582031 167.695312 C 179.304688 167.660156 179.109375 167.40625 179.148438 167.132812 L 181.640625 148.335938 C 181.675781 148.0625 181.929688 147.867188 182.203125 147.90625 C 182.480469 147.941406 182.671875 148.191406 182.636719 148.46875 Z M 195.132812 46.667969 C 195.167969 46.390625 195.417969 46.199219 195.695312 46.234375 C 195.96875 46.269531 196.164062 46.523438 196.128906 46.796875 L 193.632812 65.589844 C 193.597656 65.867188 193.347656 66.058594 193.070312 66.023438 C 192.796875 65.988281 192.601562 65.734375 192.636719 65.460938 Z M 196.003906 167.148438 C 196.039062 167.421875 195.847656 167.675781 195.570312 167.710938 C 195.296875 167.746094 195.042969 167.554688 195.007812 167.277344 L 192.554688 148.480469 C 192.515625 148.203125 192.710938 147.953125 192.984375 147.917969 C 193.261719 147.878906 193.511719 148.074219 193.550781 148.347656 Z M 179.269531 46.78125 C 179.234375 46.503906 179.429688 46.253906 179.703125 46.214844 C 179.976562 46.179688 180.230469 46.375 180.265625 46.648438 L 182.722656 65.449219 C 182.757812 65.722656 182.5625 65.976562 182.289062 66.011719 C 182.011719 66.046875 181.761719 65.855469 181.726562 65.578125 Z M 211.300781 162.9375 C 211.40625 163.195312 211.28125 163.488281 211.027344 163.59375 C 210.769531 163.699219 210.476562 163.578125 210.371094 163.320312 L 203.132812 145.796875 C 203.027344 145.539062 203.148438 145.246094 203.40625 145.140625 C 203.660156 145.035156 203.957031 145.15625 204.0625 145.414062 Z M 163.976562 50.988281 C 163.871094 50.734375 163.992188 50.4375 164.25 50.332031 C 164.503906 50.226562 164.800781 50.351562 164.90625 50.609375 L 172.144531 68.132812 C 172.246094 68.390625 172.125 68.683594 171.867188 68.789062 C 171.613281 68.894531 171.320312 68.769531 171.214844 68.515625 Z M 224.972656 154.894531 L 213.449219 139.84375 C 213.277344 139.625 212.964844 139.582031 212.742188 139.75 C 212.523438 139.917969 212.480469 140.234375 212.648438 140.457031 L 224.171875 155.507812 C 224.34375 155.726562 224.65625 155.769531 224.878906 155.601562 C 225.097656 155.433594 225.140625 155.117188 224.972656 154.894531 Z M 150.300781 59.03125 L 161.828125 74.082031 C 161.996094 74.304688 162.3125 74.347656 162.53125 74.179688 C 162.753906 74.007812 162.792969 73.695312 162.625 73.472656 L 151.101562 58.421875 C 150.933594 58.199219 150.617188 58.160156 150.394531 58.328125 C 150.175781 58.496094 150.132812 58.8125 150.300781 59.03125 Z M 236.105469 143.601562 C 236.328125 143.769531 236.367188 144.085938 236.199219 144.304688 C 236.027344 144.523438 235.710938 144.566406 235.492188 144.394531 L 220.464844 132.839844 C 220.246094 132.671875 220.203125 132.355469 220.375 132.136719 C 220.542969 131.917969 220.859375 131.875 221.078125 132.046875 Z M 139.167969 70.328125 C 138.949219 70.160156 138.90625 69.84375 139.078125 69.621094 C 139.246094 69.402344 139.5625 69.363281 139.78125 69.53125 L 154.808594 81.085938 C 155.03125 81.257812 155.070312 81.574219 154.902344 81.792969 C 154.730469 82.011719 154.414062 82.054688 154.195312 81.882812 Z M 243.949219 129.8125 C 244.203125 129.917969 244.328125 130.214844 244.222656 130.46875 C 244.113281 130.726562 243.820312 130.847656 243.5625 130.742188 L 226.054688 123.46875 C 225.796875 123.359375 225.675781 123.066406 225.78125 122.808594 C 225.886719 122.554688 226.183594 122.429688 226.4375 122.539062 Z M 131.324219 84.117188 C 131.070312 84.011719 130.945312 83.714844 131.054688 83.457031 C 131.160156 83.203125 131.453125 83.082031 131.710938 83.1875 L 149.222656 90.460938 C 149.476562 90.566406 149.601562 90.863281 149.492188 91.117188 C 149.386719 91.375 149.09375 91.496094 148.835938 91.390625 Z M 247.933594 114.457031 C 248.210938 114.492188 248.402344 114.746094 248.367188 115.019531 C 248.332031 115.296875 248.078125 115.492188 247.804688 115.453125 L 229.011719 112.960938 C 228.734375 112.925781 228.542969 112.671875 228.578125 112.398438 C 228.613281 112.121094 228.867188 111.929688 229.140625 111.964844 Z M 127.339844 99.46875 C 127.066406 99.433594 126.871094 99.183594 126.90625 98.90625 C 126.941406 98.632812 127.195312 98.4375 127.46875 98.472656 L 146.265625 100.96875 C 146.539062 101.003906 146.734375 101.253906 146.695312 101.53125 C 146.660156 101.804688 146.410156 102 146.132812 101.964844 Z M 247.820312 98.597656 C 248.097656 98.5625 248.347656 98.753906 248.382812 99.03125 C 248.421875 99.304688 248.226562 99.558594 247.953125 99.59375 L 229.152344 102.046875 C 228.878906 102.085938 228.625 101.890625 228.589844 101.613281 C 228.554688 101.339844 228.746094 101.085938 229.023438 101.050781 Z M 127.453125 115.332031 C 127.179688 115.367188 126.925781 115.175781 126.890625 114.898438 C 126.855469 114.625 127.046875 114.371094 127.324219 114.335938 L 146.121094 111.878906 C 146.398438 111.84375 146.648438 112.039062 146.683594 112.3125 C 146.722656 112.589844 146.527344 112.839844 146.253906 112.875 Z M 243.613281 83.300781 C 243.867188 83.195312 244.164062 83.320312 244.269531 83.574219 C 244.371094 83.832031 244.25 84.125 243.992188 84.230469 L 226.46875 91.46875 C 226.210938 91.574219 225.917969 91.453125 225.8125 91.195312 C 225.707031 90.9375 225.832031 90.644531 226.085938 90.539062 Z M 131.664062 130.625 C 131.40625 130.730469 131.113281 130.609375 131.007812 130.351562 C 130.902344 130.097656 131.023438 129.800781 131.28125 129.695312 L 148.804688 122.457031 C 149.0625 122.351562 149.355469 122.476562 149.460938 122.734375 C 149.566406 122.988281 149.445312 123.28125 149.1875 123.386719 Z M 235.570312 69.628906 L 220.519531 81.152344 C 220.296875 81.320312 220.253906 81.636719 220.425781 81.859375 C 220.59375 82.078125 220.910156 82.121094 221.128906 81.953125 L 236.179688 70.429688 C 236.402344 70.257812 236.441406 69.945312 236.273438 69.722656 C 236.105469 69.503906 235.789062 69.460938 235.570312 69.628906 Z M 139.707031 144.300781 L 154.757812 132.773438 C 154.976562 132.605469 155.019531 132.289062 154.851562 132.070312 C 154.683594 131.847656 154.367188 131.808594 154.144531 131.976562 L 139.09375 143.5 C 138.875 143.667969 138.832031 143.984375 139 144.207031 C 139.167969 144.425781 139.484375 144.46875 139.707031 144.300781 Z M 224.273438 58.496094 C 224.441406 58.277344 224.757812 58.234375 224.976562 58.40625 C 225.199219 58.574219 225.238281 58.890625 225.070312 59.109375 L 213.515625 74.136719 C 213.34375 74.355469 213.027344 74.398438 212.808594 74.226562 C 212.589844 74.058594 212.546875 73.742188 212.71875 73.523438 Z M 151 155.433594 C 150.832031 155.652344 150.515625 155.695312 150.296875 155.523438 C 150.078125 155.355469 150.035156 155.039062 150.207031 154.820312 L 161.761719 139.789062 C 161.929688 139.570312 162.246094 139.53125 162.464844 139.699219 C 162.683594 139.871094 162.726562 140.1875 162.554688 140.40625 Z M 210.484375 50.652344 C 210.589844 50.394531 210.886719 50.273438 211.144531 50.378906 C 211.398438 50.488281 211.519531 50.78125 211.414062 51.039062 L 204.140625 68.546875 C 204.035156 68.804688 203.738281 68.925781 203.480469 68.820312 C 203.226562 68.714844 203.105469 68.417969 203.210938 68.164062 Z M 164.789062 163.277344 C 164.683594 163.53125 164.390625 163.652344 164.132812 163.546875 C 163.875 163.441406 163.753906 163.144531 163.859375 162.890625 L 171.132812 145.378906 C 171.242188 145.121094 171.535156 145 171.792969 145.109375 C 172.046875 145.214844 172.171875 145.507812 172.0625 145.765625 Z M 173.957031 57.417969 C 173.886719 57.148438 174.046875 56.871094 174.316406 56.800781 C 174.585938 56.730469 174.859375 56.886719 174.933594 57.15625 L 175.828125 60.507812 C 175.902344 60.777344 175.742188 61.054688 175.472656 61.125 C 175.203125 61.195312 174.929688 61.035156 174.855469 60.769531 L 173.957031 57.417969 " fill-opacity="1" fill-rule="evenodd"/><path fill="#f19e05" d="M 161.71875 62.628906 C 161.578125 62.390625 161.664062 62.082031 161.902344 61.945312 C 162.144531 61.804688 162.449219 61.886719 162.589844 62.128906 L 164.324219 65.132812 C 164.460938 65.375 164.378906 65.679688 164.136719 65.816406 C 163.898438 65.957031 163.589844 65.875 163.453125 65.632812 Z M 151.242188 70.835938 L 153.691406 73.289062 C 153.890625 73.484375 154.210938 73.484375 154.40625 73.289062 C 154.601562 73.089844 154.601562 72.773438 154.40625 72.574219 L 151.953125 70.121094 C 151.757812 69.925781 151.4375 69.925781 151.242188 70.121094 C 151.042969 70.320312 151.042969 70.640625 151.242188 70.835938 Z M 143.246094 81.46875 L 146.25 83.203125 C 146.488281 83.34375 146.796875 83.261719 146.9375 83.019531 C 147.074219 82.78125 146.992188 82.472656 146.753906 82.335938 L 143.75 80.597656 C 143.507812 80.460938 143.199219 80.542969 143.0625 80.78125 C 142.921875 81.023438 143.003906 81.332031 143.246094 81.46875 Z M 138.273438 93.8125 C 138.007812 93.742188 137.847656 93.464844 137.917969 93.199219 C 137.988281 92.929688 138.265625 92.769531 138.535156 92.839844 L 141.886719 93.738281 C 142.152344 93.8125 142.3125 94.085938 142.242188 94.355469 C 142.171875 94.625 141.894531 94.785156 141.625 94.710938 Z M 136.667969 107.023438 C 136.390625 107.023438 136.164062 106.796875 136.164062 106.519531 C 136.164062 106.242188 136.390625 106.015625 136.667969 106.015625 L 140.136719 106.015625 C 140.414062 106.015625 140.640625 106.242188 140.640625 106.519531 C 140.640625 106.796875 140.414062 107.023438 140.136719 107.023438 Z M 138.535156 120.199219 C 138.265625 120.269531 137.988281 120.109375 137.917969 119.839844 C 137.847656 119.574219 138.007812 119.296875 138.273438 119.226562 L 141.625 118.328125 C 141.894531 118.253906 142.171875 118.414062 142.242188 118.683594 C 142.3125 118.953125 142.152344 119.226562 141.886719 119.300781 Z M 143.746094 132.4375 C 143.507812 132.578125 143.199219 132.496094 143.0625 132.253906 C 142.921875 132.015625 143.007812 131.707031 143.246094 131.570312 L 146.25 129.835938 C 146.492188 129.695312 146.796875 129.78125 146.9375 130.019531 C 147.074219 130.261719 146.992188 130.566406 146.75 130.703125 Z M 151.953125 142.917969 L 154.40625 140.464844 C 154.601562 140.265625 154.601562 139.949219 154.40625 139.75 C 154.207031 139.554688 153.890625 139.554688 153.691406 139.75 L 151.238281 142.203125 C 151.042969 142.402344 151.042969 142.71875 151.238281 142.917969 C 151.4375 143.113281 151.757812 143.113281 151.953125 142.917969 Z M 162.585938 150.914062 L 164.324219 147.910156 C 164.460938 147.667969 164.378906 147.359375 164.140625 147.222656 C 163.898438 147.082031 163.589844 147.164062 163.453125 147.40625 L 161.71875 150.410156 C 161.578125 150.648438 161.660156 150.957031 161.902344 151.097656 C 162.140625 151.234375 162.449219 151.152344 162.585938 150.914062 Z M 174.933594 155.882812 C 174.859375 156.148438 174.585938 156.308594 174.316406 156.238281 C 174.046875 156.167969 173.886719 155.890625 173.957031 155.621094 L 174.855469 152.269531 C 174.929688 152.003906 175.203125 151.84375 175.472656 151.914062 C 175.742188 151.988281 175.902344 152.261719 175.828125 152.53125 Z M 188.140625 157.488281 C 188.140625 157.765625 187.914062 157.992188 187.636719 157.992188 C 187.359375 157.992188 187.132812 157.765625 187.132812 157.488281 L 187.132812 154.019531 C 187.132812 153.742188 187.359375 153.515625 187.636719 153.515625 C 187.914062 153.515625 188.140625 153.742188 188.140625 154.019531 Z M 201.316406 155.621094 C 201.386719 155.890625 201.226562 156.167969 200.957031 156.238281 C 200.691406 156.308594 200.414062 156.148438 200.34375 155.882812 L 199.445312 152.53125 C 199.371094 152.261719 199.53125 151.988281 199.800781 151.914062 C 200.070312 151.84375 200.34375 152.003906 200.417969 152.269531 Z M 213.558594 150.40625 C 213.695312 150.648438 213.613281 150.957031 213.375 151.09375 C 213.132812 151.234375 212.824219 151.152344 212.6875 150.910156 L 210.953125 147.90625 C 210.8125 147.667969 210.894531 147.359375 211.136719 147.21875 C 211.375 147.082031 211.683594 147.164062 211.824219 147.402344 Z M 224.035156 142.203125 L 221.582031 139.75 C 221.382812 139.554688 221.066406 139.554688 220.867188 139.75 C 220.671875 139.949219 220.671875 140.265625 220.867188 140.464844 L 223.320312 142.917969 C 223.519531 143.113281 223.835938 143.113281 224.035156 142.917969 C 224.230469 142.71875 224.230469 142.402344 224.035156 142.203125 Z M 232.03125 131.570312 L 229.023438 129.835938 C 228.785156 129.695312 228.476562 129.777344 228.335938 130.019531 C 228.199219 130.257812 228.28125 130.566406 228.519531 130.703125 L 231.523438 132.4375 C 231.765625 132.578125 232.074219 132.496094 232.214844 132.257812 C 232.351562 132.015625 232.269531 131.707031 232.03125 131.570312 Z M 237 119.226562 C 237.269531 119.296875 237.425781 119.574219 237.355469 119.839844 C 237.285156 120.109375 237.007812 120.269531 236.738281 120.199219 L 233.386719 119.300781 C 233.121094 119.226562 232.960938 118.953125 233.03125 118.683594 C 233.105469 118.414062 233.378906 118.253906 233.648438 118.328125 Z M 238.605469 106.015625 C 238.882812 106.015625 239.109375 106.242188 239.109375 106.519531 C 239.109375 106.796875 238.882812 107.023438 238.605469 107.023438 L 235.136719 107.023438 C 234.859375 107.023438 234.632812 106.796875 234.632812 106.519531 C 234.632812 106.242188 234.859375 106.015625 235.136719 106.015625 Z M 236.738281 92.839844 C 237.007812 92.769531 237.285156 92.929688 237.355469 93.199219 C 237.425781 93.464844 237.269531 93.742188 237 93.8125 L 233.648438 94.710938 C 233.378906 94.785156 233.105469 94.625 233.03125 94.355469 C 232.960938 94.085938 233.121094 93.8125 233.386719 93.738281 Z M 231.527344 80.601562 C 231.769531 80.460938 232.074219 80.546875 232.214844 80.785156 C 232.351562 81.023438 232.269531 81.332031 232.027344 81.46875 L 229.023438 83.203125 C 228.785156 83.34375 228.476562 83.261719 228.339844 83.019531 C 228.199219 82.777344 228.285156 82.472656 228.523438 82.335938 Z M 223.320312 70.121094 L 220.867188 72.574219 C 220.671875 72.773438 220.671875 73.09375 220.867188 73.289062 C 221.066406 73.484375 221.382812 73.484375 221.582031 73.289062 L 224.035156 70.835938 C 224.230469 70.640625 224.230469 70.320312 224.035156 70.121094 C 223.835938 69.925781 223.519531 69.925781 223.320312 70.121094 Z M 212.6875 62.128906 L 210.953125 65.132812 C 210.8125 65.375 210.898438 65.679688 211.136719 65.816406 C 211.378906 65.957031 211.683594 65.875 211.824219 65.632812 L 213.558594 62.628906 C 213.695312 62.390625 213.613281 62.082031 213.371094 61.945312 C 213.132812 61.804688 212.824219 61.890625 212.6875 62.128906 Z M 199.808594 57.015625 C 199.878906 56.75 200.15625 56.589844 200.425781 56.660156 C 200.691406 56.730469 200.851562 57.007812 200.78125 57.277344 L 199.882812 60.628906 C 199.8125 60.894531 199.535156 61.054688 199.265625 60.984375 C 199 60.910156 198.839844 60.636719 198.910156 60.367188 Z M 175.59375 63.515625 C 175.523438 63.25 175.679688 62.972656 175.949219 62.902344 C 176.21875 62.828125 176.496094 62.988281 176.566406 63.257812 L 177.414062 66.421875 C 177.484375 66.691406 177.328125 66.96875 177.058594 67.039062 C 176.789062 67.109375 176.511719 66.953125 176.441406 66.683594 Z M 164.875 68.101562 L 166.492188 70.902344 C 166.632812 71.140625 166.9375 71.222656 167.179688 71.085938 C 167.421875 70.945312 167.503906 70.636719 167.363281 70.398438 L 165.746094 67.597656 C 165.605469 67.355469 165.296875 67.273438 165.058594 67.414062 C 164.816406 67.550781 164.734375 67.859375 164.875 68.101562 Z M 155.707031 75.300781 C 155.507812 75.105469 155.507812 74.785156 155.707031 74.589844 C 155.902344 74.390625 156.222656 74.390625 156.417969 74.589844 L 158.664062 76.832031 C 158.859375 77.027344 158.859375 77.347656 158.664062 77.542969 C 158.464844 77.742188 158.144531 77.742188 157.949219 77.542969 Z M 148.714844 84.628906 L 151.378906 86.167969 C 151.621094 86.304688 151.925781 86.222656 152.066406 85.980469 C 152.203125 85.742188 152.121094 85.433594 151.878906 85.296875 L 149.214844 83.757812 C 148.976562 83.621094 148.667969 83.703125 148.53125 83.941406 C 148.390625 84.183594 148.476562 84.488281 148.714844 84.628906 Z M 144.375 95.449219 C 144.105469 95.378906 143.945312 95.101562 144.019531 94.832031 C 144.089844 94.5625 144.367188 94.40625 144.632812 94.476562 L 147.496094 95.242188 C 147.765625 95.316406 147.925781 95.589844 147.855469 95.859375 C 147.78125 96.128906 147.507812 96.289062 147.238281 96.214844 Z M 142.984375 107.023438 C 142.703125 107.023438 142.480469 106.796875 142.480469 106.519531 C 142.480469 106.242188 142.703125 106.015625 142.984375 106.015625 L 145.84375 106.015625 C 146.121094 106.015625 146.347656 106.242188 146.347656 106.519531 C 146.347656 106.796875 146.121094 107.023438 145.84375 107.023438 Z M 144.632812 118.5625 C 144.367188 118.636719 144.089844 118.476562 144.019531 118.207031 C 143.945312 117.9375 144.105469 117.664062 144.375 117.589844 L 147.015625 116.882812 C 147.285156 116.8125 147.558594 116.972656 147.632812 117.238281 C 147.703125 117.507812 147.542969 117.785156 147.273438 117.855469 Z M 149.21875 129.28125 L 151.496094 127.96875 C 151.734375 127.828125 151.816406 127.519531 151.679688 127.28125 C 151.539062 127.039062 151.230469 126.957031 150.992188 127.097656 L 148.714844 128.410156 C 148.472656 128.550781 148.390625 128.859375 148.53125 129.097656 C 148.667969 129.339844 148.976562 129.421875 149.21875 129.28125 Z M 156.417969 138.453125 C 156.222656 138.648438 155.902344 138.648438 155.707031 138.453125 C 155.507812 138.253906 155.507812 137.933594 155.707031 137.738281 L 157.503906 135.9375 C 157.703125 135.742188 158.019531 135.742188 158.21875 135.9375 C 158.414062 136.136719 158.414062 136.453125 158.21875 136.652344 Z M 165.746094 145.445312 L 166.980469 143.304688 C 167.117188 143.066406 167.035156 142.757812 166.796875 142.621094 C 166.554688 142.480469 166.25 142.5625 166.109375 142.800781 L 164.875 144.941406 C 164.734375 145.179688 164.816406 145.488281 165.058594 145.625 C 165.296875 145.765625 165.605469 145.683594 165.746094 145.445312 Z M 176.566406 149.78125 C 176.496094 150.050781 176.21875 150.210938 175.949219 150.136719 C 175.679688 150.066406 175.523438 149.789062 175.59375 149.523438 L 176.21875 147.1875 C 176.292969 146.917969 176.566406 146.757812 176.835938 146.828125 C 177.105469 146.902344 177.265625 147.175781 177.191406 147.445312 Z M 188.140625 151.171875 C 188.140625 151.453125 187.914062 151.679688 187.636719 151.679688 C 187.359375 151.679688 187.132812 151.453125 187.132812 151.171875 L 187.132812 148.761719 C 187.132812 148.484375 187.359375 148.257812 187.636719 148.257812 C 187.914062 148.257812 188.140625 148.484375 188.140625 148.761719 Z M 199.679688 149.523438 C 199.753906 149.789062 199.59375 150.066406 199.324219 150.136719 C 199.054688 150.210938 198.78125 150.050781 198.707031 149.78125 L 198.082031 147.445312 C 198.011719 147.175781 198.167969 146.902344 198.4375 146.828125 C 198.707031 146.757812 198.984375 146.917969 199.054688 147.1875 Z M 210.398438 144.9375 L 209.167969 142.800781 C 209.027344 142.5625 208.71875 142.480469 208.480469 142.617188 C 208.238281 142.757812 208.15625 143.066406 208.296875 143.304688 L 209.527344 145.441406 C 209.667969 145.683594 209.976562 145.765625 210.214844 145.625 C 210.457031 145.488281 210.539062 145.179688 210.398438 144.9375 Z M 219.570312 137.738281 C 219.765625 137.933594 219.765625 138.253906 219.570312 138.449219 C 219.371094 138.648438 219.054688 138.648438 218.855469 138.449219 L 217.058594 136.652344 C 216.859375 136.453125 216.859375 136.136719 217.058594 135.9375 C 217.253906 135.742188 217.574219 135.742188 217.769531 135.9375 Z M 226.558594 128.410156 L 224.28125 127.097656 C 224.042969 126.957031 223.734375 127.042969 223.59375 127.28125 C 223.457031 127.523438 223.539062 127.828125 223.78125 127.964844 L 226.058594 129.28125 C 226.300781 129.417969 226.605469 129.335938 226.742188 129.097656 C 226.882812 128.855469 226.796875 128.550781 226.558594 128.410156 Z M 230.898438 117.589844 C 231.167969 117.664062 231.328125 117.9375 231.257812 118.207031 C 231.183594 118.476562 230.910156 118.636719 230.640625 118.5625 L 228 117.855469 C 227.730469 117.785156 227.570312 117.507812 227.644531 117.238281 C 227.714844 116.972656 227.992188 116.8125 228.257812 116.882812 Z M 232.292969 106.015625 C 232.570312 106.015625 232.796875 106.242188 232.796875 106.519531 C 232.796875 106.796875 232.570312 107.023438 232.292969 107.023438 L 229.429688 107.023438 C 229.152344 107.023438 228.925781 106.796875 228.925781 106.519531 C 228.925781 106.242188 229.152344 106.015625 229.429688 106.015625 Z M 230.640625 94.476562 C 230.910156 94.402344 231.183594 94.5625 231.257812 94.832031 C 231.328125 95.101562 231.167969 95.378906 230.898438 95.449219 L 228.035156 96.214844 C 227.769531 96.289062 227.492188 96.128906 227.421875 95.859375 C 227.347656 95.589844 227.507812 95.316406 227.777344 95.242188 Z M 226.058594 83.757812 L 223.394531 85.296875 C 223.152344 85.433594 223.070312 85.742188 223.210938 85.984375 C 223.347656 86.222656 223.65625 86.304688 223.898438 86.167969 L 226.5625 84.628906 C 226.800781 84.488281 226.882812 84.179688 226.742188 83.941406 C 226.605469 83.699219 226.296875 83.617188 226.058594 83.757812 Z M 218.855469 74.589844 L 216.613281 76.832031 C 216.414062 77.027344 216.414062 77.347656 216.613281 77.542969 C 216.808594 77.742188 217.128906 77.742188 217.324219 77.542969 L 219.570312 75.300781 C 219.765625 75.105469 219.765625 74.785156 219.570312 74.589844 C 219.371094 74.390625 219.054688 74.390625 218.855469 74.589844 Z M 209.527344 67.597656 L 207.910156 70.398438 C 207.773438 70.640625 207.855469 70.945312 208.097656 71.085938 C 208.335938 71.222656 208.644531 71.140625 208.78125 70.898438 L 210.398438 68.097656 C 210.539062 67.859375 210.453125 67.550781 210.214844 67.414062 C 209.972656 67.273438 209.667969 67.359375 209.527344 67.597656 Z M 198.175781 63.117188 C 198.246094 62.847656 198.523438 62.6875 198.789062 62.761719 C 199.058594 62.832031 199.21875 63.109375 199.148438 63.375 L 198.296875 66.546875 C 198.226562 66.8125 197.949219 66.972656 197.679688 66.902344 C 197.414062 66.828125 197.253906 66.554688 197.324219 66.285156 Z M 187.132812 55.550781 C 187.132812 55.273438 187.359375 55.046875 187.636719 55.046875 C 187.917969 55.046875 188.140625 55.273438 188.140625 55.550781 L 188.140625 59.019531 C 188.140625 59.296875 187.917969 59.523438 187.636719 59.523438 C 187.359375 59.523438 187.132812 59.296875 187.132812 59.019531 Z M 187.132812 61.867188 C 187.132812 61.585938 187.359375 61.363281 187.636719 61.363281 C 187.917969 61.363281 188.140625 61.585938 188.140625 61.867188 L 188.140625 65.164062 C 188.140625 65.445312 187.917969 65.671875 187.636719 65.671875 C 187.359375 65.671875 187.132812 65.445312 187.132812 65.164062 Z M 180.144531 167.261719 C 180.109375 167.535156 179.855469 167.730469 179.582031 167.695312 C 179.304688 167.660156 179.109375 167.40625 179.148438 167.132812 L 181.640625 148.335938 C 181.675781 148.0625 181.929688 147.867188 182.203125 147.90625 C 182.480469 147.941406 182.671875 148.191406 182.636719 148.46875 Z M 195.132812 46.667969 C 195.167969 46.390625 195.417969 46.199219 195.695312 46.234375 C 195.96875 46.269531 196.164062 46.523438 196.128906 46.796875 L 193.632812 65.589844 C 193.597656 65.867188 193.347656 66.058594 193.070312 66.023438 C 192.796875 65.988281 192.601562 65.734375 192.636719 65.460938 Z M 196.003906 167.148438 C 196.039062 167.421875 195.847656 167.675781 195.570312 167.710938 C 195.296875 167.746094 195.042969 167.554688 195.007812 167.277344 L 192.554688 148.480469 C 192.515625 148.203125 192.710938 147.953125 192.984375 147.917969 C 193.261719 147.878906 193.511719 148.074219 193.550781 148.347656 Z M 179.269531 46.78125 C 179.234375 46.503906 179.429688 46.253906 179.703125 46.214844 C 179.976562 46.179688 180.230469 46.375 180.265625 46.648438 L 182.722656 65.449219 C 182.757812 65.722656 182.5625 65.976562 182.289062 66.011719 C 182.011719 66.046875 181.761719 65.855469 181.726562 65.578125 Z M 211.300781 162.9375 C 211.40625 163.195312 211.28125 163.488281 211.027344 163.59375 C 210.769531 163.699219 210.476562 163.578125 210.371094 163.320312 L 203.132812 145.796875 C 203.027344 145.539062 203.148438 145.246094 203.40625 145.140625 C 203.660156 145.035156 203.957031 145.15625 204.0625 145.414062 Z M 163.976562 50.988281 C 163.871094 50.734375 163.992188 50.4375 164.25 50.332031 C 164.503906 50.226562 164.800781 50.351562 164.90625 50.609375 L 172.144531 68.132812 C 172.246094 68.390625 172.125 68.683594 171.867188 68.789062 C 171.613281 68.894531 171.320312 68.769531 171.214844 68.515625 Z M 224.972656 154.894531 L 213.449219 139.84375 C 213.277344 139.625 212.964844 139.582031 212.742188 139.75 C 212.523438 139.917969 212.480469 140.234375 212.648438 140.457031 L 224.171875 155.507812 C 224.34375 155.726562 224.65625 155.769531 224.878906 155.601562 C 225.097656 155.433594 225.140625 155.117188 224.972656 154.894531 Z M 150.300781 59.03125 L 161.828125 74.082031 C 161.996094 74.304688 162.3125 74.347656 162.53125 74.179688 C 162.753906 74.007812 162.792969 73.695312 162.625 73.472656 L 151.101562 58.421875 C 150.933594 58.199219 150.617188 58.160156 150.394531 58.328125 C 150.175781 58.496094 150.132812 58.8125 150.300781 59.03125 Z M 236.105469 143.601562 C 236.328125 143.769531 236.367188 144.085938 236.199219 144.304688 C 236.027344 144.523438 235.710938 144.566406 235.492188 144.394531 L 220.464844 132.839844 C 220.246094 132.671875 220.203125 132.355469 220.375 132.136719 C 220.542969 131.917969 220.859375 131.875 221.078125 132.046875 Z M 139.167969 70.328125 C 138.949219 70.160156 138.90625 69.84375 139.078125 69.621094 C 139.246094 69.402344 139.5625 69.363281 139.78125 69.53125 L 154.808594 81.085938 C 155.03125 81.257812 155.070312 81.574219 154.902344 81.792969 C 154.730469 82.011719 154.414062 82.054688 154.195312 81.882812 Z M 243.949219 129.8125 C 244.203125 129.917969 244.328125 130.214844 244.222656 130.46875 C 244.113281 130.726562 243.820312 130.847656 243.5625 130.742188 L 226.054688 123.46875 C 225.796875 123.359375 225.675781 123.066406 225.78125 122.808594 C 225.886719 122.554688 226.183594 122.429688 226.4375 122.539062 Z M 131.324219 84.117188 C 131.070312 84.011719 130.945312 83.714844 131.054688 83.457031 C 131.160156 83.203125 131.453125 83.082031 131.710938 83.1875 L 149.222656 90.460938 C 149.476562 90.566406 149.601562 90.863281 149.492188 91.117188 C 149.386719 91.375 149.09375 91.496094 148.835938 91.390625 Z M 247.933594 114.457031 C 248.210938 114.492188 248.402344 114.746094 248.367188 115.019531 C 248.332031 115.296875 248.078125 115.492188 247.804688 115.453125 L 229.011719 112.960938 C 228.734375 112.925781 228.542969 112.671875 228.578125 112.398438 C 228.613281 112.121094 228.867188 111.929688 229.140625 111.964844 Z M 127.339844 99.46875 C 127.066406 99.433594 126.871094 99.183594 126.90625 98.90625 C 126.941406 98.632812 127.195312 98.4375 127.46875 98.472656 L 146.265625 100.96875 C 146.539062 101.003906 146.734375 101.253906 146.695312 101.53125 C 146.660156 101.804688 146.410156 102 146.132812 101.964844 Z M 247.820312 98.597656 C 248.097656 98.5625 248.347656 98.753906 248.382812 99.03125 C 248.421875 99.304688 248.226562 99.558594 247.953125 99.59375 L 229.152344 102.046875 C 228.878906 102.085938 228.625 101.890625 228.589844 101.613281 C 228.554688 101.339844 228.746094 101.085938 229.023438 101.050781 Z M 127.453125 115.332031 C 127.179688 115.367188 126.925781 115.175781 126.890625 114.898438 C 126.855469 114.625 127.046875 114.371094 127.324219 114.335938 L 146.121094 111.878906 C 146.398438 111.84375 146.648438 112.039062 146.683594 112.3125 C 146.722656 112.589844 146.527344 112.839844 146.253906 112.875 Z M 243.613281 83.300781 C 243.867188 83.195312 244.164062 83.320312 244.269531 83.574219 C 244.371094 83.832031 244.25 84.125 243.992188 84.230469 L 226.46875 91.46875 C 226.210938 91.574219 225.917969 91.453125 225.8125 91.195312 C 225.707031 90.9375 225.832031 90.644531 226.085938 90.539062 Z M 131.664062 130.625 C 131.40625 130.730469 131.113281 130.609375 131.007812 130.351562 C 130.902344 130.097656 131.023438 129.800781 131.28125 129.695312 L 148.804688 122.457031 C 149.0625 122.351562 149.355469 122.476562 149.460938 122.734375 C 149.566406 122.988281 149.445312 123.28125 149.1875 123.386719 Z M 235.570312 69.628906 L 220.519531 81.152344 C 220.296875 81.320312 220.253906 81.636719 220.425781 81.859375 C 220.59375 82.078125 220.910156 82.121094 221.128906 81.953125 L 236.179688 70.429688 C 236.402344 70.257812 236.441406 69.945312 236.273438 69.722656 C 236.105469 69.503906 235.789062 69.460938 235.570312 69.628906 Z M 139.707031 144.300781 L 154.757812 132.773438 C 154.976562 132.605469 155.019531 132.289062 154.851562 132.070312 C 154.683594 131.847656 154.367188 131.808594 154.144531 131.976562 L 139.09375 143.5 C 138.875 143.667969 138.832031 143.984375 139 144.207031 C 139.167969 144.425781 139.484375 144.46875 139.707031 144.300781 Z M 224.273438 58.496094 C 224.441406 58.277344 224.757812 58.234375 224.976562 58.40625 C 225.199219 58.574219 225.238281 58.890625 225.070312 59.109375 L 213.515625 74.136719 C 213.34375 74.355469 213.027344 74.398438 212.808594 74.226562 C 212.589844 74.058594 212.546875 73.742188 212.71875 73.523438 Z M 151 155.433594 C 150.832031 155.652344 150.515625 155.695312 150.296875 155.523438 C 150.078125 155.355469 150.035156 155.039062 150.207031 154.820312 L 161.761719 139.789062 C 161.929688 139.570312 162.246094 139.53125 162.464844 139.699219 C 162.683594 139.871094 162.726562 140.1875 162.554688 140.40625 Z M 210.484375 50.652344 C 210.589844 50.394531 210.886719 50.273438 211.144531 50.378906 C 211.398438 50.488281 211.519531 50.78125 211.414062 51.039062 L 204.140625 68.546875 C 204.035156 68.804688 203.738281 68.925781 203.480469 68.820312 C 203.226562 68.714844 203.105469 68.417969 203.210938 68.164062 Z M 164.789062 163.277344 C 164.683594 163.53125 164.390625 163.652344 164.132812 163.546875 C 163.875 163.441406 163.753906 163.144531 163.859375 162.890625 L 171.132812 145.378906 C 171.242188 145.121094 171.535156 145 171.792969 145.109375 C 172.046875 145.214844 172.171875 145.507812 172.0625 145.765625 Z M 173.957031 57.417969 C 173.886719 57.148438 174.046875 56.871094 174.316406 56.800781 C 174.585938 56.730469 174.859375 56.886719 174.933594 57.15625 L 175.828125 60.507812 C 175.902344 60.777344 175.742188 61.054688 175.472656 61.125 C 175.203125 61.195312 174.929688 61.035156 174.855469 60.769531 L 173.957031 57.417969 " fill-opacity="1" fill-rule="evenodd"/></g></svg>