<svg width="166" height="48" viewBox="0 0 166 48" fill="none" xmlns="http://www.w3.org/2000/svg">
<g clip-path="url(#clip0_83_8717)">
<path d="M153.252 29.897V29.9147C153.434 29.8264 153.633 29.7664 153.843 29.7417C153.633 29.7558 153.437 29.8123 153.252 29.897Z" fill="#1A1A1A"/>
<path d="M162.977 1.64483C159.425 1.0447 155.859 0.476337 152.283 0.130378C150.088 -0.0849633 147.842 -0.000238732 145.637 0.183331C142.652 0.433975 139.902 1.44361 137.697 3.57937C134.358 1.14707 131.793 0.172741 128.791 0.0597745C123.157 -0.152037 117.613 0.52576 112.109 1.66954C110.247 2.0508 109.33 3.19105 109.33 5.10442C109.33 17.2518 109.323 29.4027 109.33 41.5501C109.33 44.0424 111.045 45.4263 113.47 44.9038C117.998 43.9189 122.579 43.4246 127.212 43.4282C130.421 43.4282 133.242 44.2754 135.405 46.8842C136.633 48.3598 138.334 48.3351 139.769 47.036C140.563 46.3159 141.298 45.5004 142.169 44.8826C143.814 43.7212 145.763 43.4811 147.702 43.4423C152.37 43.347 156.986 43.8765 161.553 44.8402C164.359 45.4368 166.004 44.1236 166.004 41.25V5.47509C166.004 3.19811 165.164 2.01197 162.977 1.6413V1.64483ZM161.287 39.4814C161.287 39.7003 161.252 39.9192 161.227 40.2122C158.813 39.898 156.503 39.5238 154.176 39.3261C150.68 39.0295 147.159 38.6659 143.705 39.6156C142.467 39.958 141.298 40.5475 140.01 41.0559C139.996 40.8758 139.951 40.6181 139.951 40.3569V37.441C139.8 37.4516 139.653 37.4551 139.51 37.4621C138.855 37.4904 138.264 37.501 137.784 37.501C137.214 37.501 136.804 37.4869 136.633 37.4833C136.206 37.4692 135.786 37.4516 135.384 37.4374V40.9888C133.648 40.4134 132.021 39.6297 130.313 39.3755C128.234 39.0719 126.086 39.0825 123.982 39.1919C121.27 39.3331 118.572 39.7073 115.871 39.9933C115.251 40.0604 114.646 40.1804 113.894 40.3004V39.1566C113.894 28.446 113.908 17.7284 113.873 7.01778C113.873 6.08581 114.187 5.77162 115.066 5.59864C119.08 4.80435 123.125 4.21834 127.216 4.33837C128.892 4.38779 130.61 4.76905 132.21 5.30564C134.435 6.05051 135.387 7.65321 135.387 10.0043V11.9247C135.755 11.7941 136.119 11.6635 136.486 11.5329C136.92 11.3776 137.308 11.3811 137.735 11.5329C138.474 11.7941 139.212 12.0554 139.954 12.3201V9.57364C139.947 7.56143 141.004 6.26938 142.701 5.45391C145.088 4.30659 147.663 4.10537 150.225 4.33484C153.588 4.63843 156.926 5.1962 160.282 5.61629C161.007 5.70808 161.311 5.99755 161.311 6.78126C161.29 17.686 161.297 28.5872 161.294 39.4885L161.287 39.4814Z" fill="#FCCD36"/>
<path d="M158.627 21.2445L154.809 22.6319V29.897C155.621 30.25 156.136 31.1573 155.919 32.1387C155.754 32.8694 155.163 33.4519 154.435 33.6002C153.186 33.8543 152.09 32.8941 152.09 31.6833C152.09 30.8996 152.549 30.2253 153.21 29.9146C153.224 29.9076 153.238 29.9005 153.252 29.897V29.9146C153.434 29.8264 153.634 29.7664 153.844 29.7417C153.634 29.7558 153.438 29.8123 153.252 29.897V23.1932L149.462 24.5699V30.6772C149.462 31.2314 149.378 31.7821 149.217 32.3081C149.203 32.3575 148.832 33.526 147.888 34.5357C146.278 36.2584 142.299 36.7491 139.51 36.8762C138.855 36.9044 138.264 36.915 137.785 36.915C137.214 36.915 136.805 36.9009 136.633 36.8974C136.052 36.8762 135.485 36.855 134.943 36.8303C131.034 36.675 128.091 36.3784 126.352 34.5074C125.802 33.9144 125.015 32.7776 124.802 30.6772V27.0058C124.802 26.7904 124.889 26.5927 125.029 26.4515C125.169 26.3103 125.365 26.2221 125.578 26.2221C126.009 26.2221 126.355 26.5751 126.355 27.0058V30.6242C126.509 31.7786 126.905 32.7423 127.535 33.4872C127.899 33.9144 128.808 34.9946 134.943 35.2699C135.478 35.2947 136.049 35.3123 136.668 35.3229H136.682C137.347 35.3476 138.365 35.3511 139.51 35.2911C142.201 35.164 145.585 34.7086 146.757 33.4554C147.447 32.7176 147.73 31.8421 147.734 31.8351C147.849 31.4644 147.908 31.0725 147.908 30.6736V25.1312L137.872 28.7744C137.491 28.9121 137.074 28.9156 136.686 28.7815L126.355 25.1913C125.837 25.0077 125.32 24.8312 124.802 24.6476L115.892 21.5481C115.136 21.2833 115.126 20.2102 115.878 19.9313L124.802 16.6517L126.355 16.0763L136.535 12.3308C137.011 12.1578 137.533 12.1543 138.009 12.3308L147.905 15.921L149.459 16.4858L158.62 19.8077C159.289 20.0478 159.289 21.0044 158.62 21.2445H158.627Z" fill="#1A1A1A"/>
<path d="M153.843 29.7417C153.633 29.7664 153.434 29.8264 153.252 29.9147V29.897C153.437 29.8158 153.633 29.7594 153.843 29.7417Z" fill="#1A1A1A"/>
<path d="M153.843 29.7417C153.633 29.7664 153.434 29.8264 153.252 29.9147V29.897C153.437 29.8158 153.633 29.7594 153.843 29.7417Z" fill="#1A1A1A"/>
<path d="M9.59489 16.1648V17.6828H5.6475C4.3912 17.6828 3.53033 18.5653 3.53033 19.9668C3.53033 20.5846 3.7298 21.0824 4.14274 21.4672C4.55567 21.852 5.07009 22.0496 5.6475 22.0496H7.64919V24.0018H6.3264C4.95461 24.0018 3.86278 23.6841 3.0544 23.0522C2.14455 22.3179 1.68262 21.2695 1.68262 19.8856C1.68262 18.5018 2.06406 17.4498 2.82344 16.7332C3.50233 16.0836 4.42619 15.7659 5.56701 15.7659H7.6002C7.28525 13.9161 6.3264 13.1465 4.70615 13.1465C4.07975 13.1465 3.64931 13.2806 3.41835 13.4148V11.8156C3.76479 11.6638 4.24422 11.5332 4.83913 11.5332C6.45938 11.5332 7.71568 12.0168 8.59054 13.1853C9.26944 14.0855 9.59839 15.0846 9.59839 16.1719L9.59489 16.1648Z" fill="#1A1A1A"/>
<path d="M20.6709 23.0347V24.9021H22.4906V23.0347H20.6709Z" fill="#1A1A1A"/>
<path d="M31.2324 10.2939V12.1438H33.0346V10.2939H31.2324Z" fill="#1A1A1A"/>
<path d="M33.0699 13.6793V18.2333C33.0699 20.2526 32.1426 21.2516 30.2914 21.2516H14.0119C13.1195 21.2516 12.4441 20.9692 11.9612 20.3867C11.5133 19.8501 11.2998 19.137 11.2998 18.2192V10.4951H13.1335V17.4672C13.1335 18.2862 13.3155 18.8158 13.6619 19.0664C13.9104 19.25 14.3898 19.3524 15.0827 19.3524H25.1367C25.1367 18.3215 24.8532 17.4355 24.2758 16.7012C23.5969 15.8504 22.6415 15.4374 21.4342 15.4374C21.0213 15.4374 20.5594 15.5362 20.0449 15.7516C19.45 16.0022 18.9531 16.3552 18.5577 16.8036C18.3757 16.4576 18.0783 15.9704 17.6653 15.335C18.1762 14.8549 18.7536 14.456 19.4325 14.1524C20.1569 13.8382 20.8883 13.6864 21.6127 13.6864C22.7535 13.6864 23.7614 13.9512 24.6222 14.4878C26.127 15.4197 26.9529 17.0366 27.0999 19.3559H29.9134C30.5258 19.3559 30.9038 19.1759 31.0857 18.8052C31.1662 18.604 31.2187 18.2051 31.2187 17.6085V13.6899H33.0699V13.6793Z" fill="#1A1A1A"/>
<path d="M43.652 8.83984V10.7108H45.4717V8.83984H43.652ZM40.5234 8.83984V10.7108H42.3432V8.83984H40.5234Z" fill="#1A1A1A"/>
<path d="M48.0469 23.0347V24.9021H49.8666V23.0347H48.0469ZM51.1719 23.0347V24.9021H52.9916V23.0347H51.1719Z" fill="#1A1A1A"/>
<path d="M71.7979 23.0347V24.9021H73.6176V23.0347H71.7979ZM68.6729 23.0347V24.9021H70.4926V23.0347H68.6729Z" fill="#1A1A1A"/>
<path d="M71.8196 13.6796V17.5981C71.8196 18.1982 71.7671 18.5971 71.6867 18.7948C71.5047 19.1655 71.1233 19.3455 70.5143 19.3455H64.4603V18.8619C64.4603 17.7463 64.1173 16.8285 63.4384 16.0766C62.7596 15.3246 61.8672 14.961 60.7579 14.961C59.6485 14.961 58.7597 15.3282 58.0633 16.0448C57.3879 16.7614 57.0414 17.6793 57.0414 18.7948C57.0414 18.9784 57.0414 19.1655 57.0554 19.3455H52.6426C52.9261 19.0278 53.0556 18.3959 53.0556 17.411V13.676H51.2218V17.5098C51.2218 18.0958 51.1554 18.5265 51.0224 18.7771C50.8194 19.1619 50.4415 19.342 49.8955 19.342H47.4634C46.2246 19.342 45.6122 18.643 45.6122 17.3404V12.0557H41.5283C39.4147 12.0557 38.1094 13.6054 38.1094 16.1048C38.1094 18.4241 39.4147 20.0233 41.5283 20.0233C42.3577 20.0233 43.0681 19.6067 43.649 18.7736C44.027 20.2563 45.1993 21.2412 46.6411 21.2412H57.7973C58.5077 22.2085 59.4841 22.6921 60.7544 22.6921C62.0247 22.6921 63.0395 22.212 63.7464 21.2412H70.9063C72.74 21.2412 73.6674 20.2422 73.6674 18.2229V13.669H71.8161L71.8196 13.6796ZM43.7015 15.9318C43.7015 17.3474 42.9771 18.4841 41.7698 18.4841C40.6605 18.4841 39.9501 17.3827 39.9501 16.0977C39.9501 14.548 40.741 13.5136 42.0323 13.5136H43.7015V15.9318ZM62.1331 20.334C61.8182 20.7505 61.3703 20.9694 60.8104 20.9694C59.6695 20.9694 58.9416 19.9809 58.9416 18.7842C58.9416 18.1982 59.0921 17.7004 59.3756 17.3156C59.7045 16.8638 60.1525 16.6484 60.7124 16.6484C61.2723 16.6484 61.7692 16.8814 62.1157 17.3333C62.4131 17.7463 62.5636 18.2653 62.5636 18.8513C62.5636 19.4373 62.4131 19.9492 62.1331 20.334Z" fill="#1A1A1A"/>
<path d="M83.0735 21.248H75.2207V19.3488H81.2048C81.2048 17.1636 80.3614 15.8963 78.6922 15.5291C78.1777 15.4126 77.6178 15.3773 77.0229 15.3773V13.6758C77.9328 13.6758 78.5102 13.6934 78.7412 13.7076C78.9721 13.7252 79.3046 13.7923 79.7315 13.9405C81.9467 14.6925 83.0525 16.4929 83.07 19.3453V21.2445L83.0735 21.248Z" fill="#1A1A1A"/>
<path d="M100.102 20.0831V21.2481H87.4865C86.5941 21.2481 85.9187 20.9657 85.4358 20.3832C84.9879 19.8466 84.7744 19.1335 84.7744 18.2156V10.4951H86.6081V17.4672C86.6081 18.2862 86.7901 18.8158 87.14 19.0664C87.385 19.25 87.8644 19.3524 88.5573 19.3524H98.1108C98.1108 18.3215 97.8134 17.4355 97.2185 16.7012C96.5256 15.8504 95.5667 15.4374 94.3594 15.4374H90.538L93.796 10.4986H95.9937L93.7645 13.6829H94.5764C95.7977 13.6829 96.858 13.9829 97.7469 14.6007C99.3182 15.6527 100.099 17.4708 100.099 20.0902L100.102 20.0831Z" fill="#1A1A1A"/>
<path d="M104.101 9.62687H101.242V8.86081H101.904C101.806 8.5431 101.757 8.35953 101.757 8.27833C101.757 7.49463 102.334 6.92627 103.044 6.92627C103.506 6.92627 103.856 7.17691 104.087 7.66055L103.492 7.97827C103.443 7.72762 103.279 7.61113 103.03 7.61113C102.684 7.61113 102.467 7.92884 102.467 8.24303C102.467 8.52545 102.565 8.74432 102.764 8.86081H104.105V9.62687H104.101ZM103.639 21.2483H101.806V10.4776H103.639V21.2518V21.2483Z" fill="#1A1A1A"/>
<path d="M4.26215 35.1008C4.5981 35.1008 4.89205 35.0232 5.14751 34.8678C5.43097 34.6984 5.57095 34.4513 5.57095 34.1018C5.57095 33.9323 5.53245 33.7911 5.44147 33.6746C5.14401 33.2722 4.5561 33.1557 3.82122 33.0533C2.71539 32.898 1.67605 32.4708 1.18613 31.4188C1.01815 31.0941 0.941165 30.6916 0.941165 30.2115V30.1339C1.04265 28.397 2.6244 27.4897 4.25865 27.4897C5.44147 27.4897 6.56129 27.9557 7.33117 29.1101L5.77391 30.1621C5.37498 29.5514 4.86056 29.2937 4.25865 29.2937C3.53776 29.2937 2.90786 29.5655 2.86937 30.2009V30.2151C2.86937 30.967 3.65324 31.0694 4.43712 31.2388C5.64443 31.4718 6.75026 31.8495 7.25069 32.9368C7.39066 33.2475 7.46765 33.6252 7.46765 34.0771V34.2854C7.29968 35.9975 5.67943 36.9436 4.01019 36.9436C2.82737 36.9436 1.62006 36.3717 0.84668 35.1926L2.27446 34.0912C2.68739 34.7513 3.48177 35.0902 4.18866 35.1044H4.25165L4.26215 35.1008Z" fill="#1A1A1A"/>
<path d="M9.1123 34.4549V30.0986H10.9005V34.3525C10.9005 35.1433 11.4149 35.4539 12.0204 35.4539C12.2373 35.4539 12.4578 35.4151 12.6643 35.3374V30.0986H14.4385V36.453C13.7176 36.7142 12.8427 36.9472 11.9189 36.9472C10.4421 36.9472 9.1158 36.3647 9.1158 34.4584L9.1123 34.4549Z" fill="#1A1A1A"/>
<path d="M16.2578 34.5711V32.3542C16.2578 30.7585 17.6086 29.9678 18.9314 29.9678C19.8693 29.9678 21.1151 30.409 21.451 31.7823L19.9217 32.2624C19.7818 31.7964 19.3443 31.5881 18.9314 31.5881C18.48 31.5881 18.0425 31.86 18.0425 32.3401V34.557C18.0425 35.0618 18.48 35.3231 18.9314 35.3231C19.3443 35.3231 19.7923 35.1007 19.9602 34.5959L21.528 35.1148C21.0521 36.4633 19.9077 36.9434 18.9314 36.9434C17.6086 36.9434 16.2578 36.1668 16.2578 34.5711Z" fill="#1A1A1A"/>
<path d="M22.9209 34.5711V32.3542C22.9209 30.7585 24.2717 29.9678 25.5945 29.9678C26.5323 29.9678 27.7781 30.409 28.1141 31.7823L26.5848 32.2624C26.4448 31.7964 26.0074 31.5881 25.5945 31.5881C25.1431 31.5881 24.7056 31.86 24.7056 32.3401V34.557C24.7056 35.0618 25.1431 35.3231 25.5945 35.3231C26.0074 35.3231 26.4553 35.1007 26.6233 34.5959L28.1911 35.1148C27.7152 36.4633 26.5708 36.9434 25.5945 36.9434C24.2717 36.9434 22.9209 36.1668 22.9209 34.5711Z" fill="#1A1A1A"/>
<path d="M29.5811 34.557V32.3401C29.5811 30.7197 30.9563 29.9678 32.2931 29.9678C33.6299 29.9678 34.8652 30.642 34.8652 32.2624V34.2322H31.3798V34.5323C31.3798 35.0512 31.8697 35.3231 32.3841 35.3231C32.7971 35.3231 33.2205 35.1677 33.427 34.8183L34.5958 35.6726C34.0954 36.6328 33.0525 36.9434 32.2686 36.9434C30.9318 36.9434 29.5811 36.1527 29.5811 34.557ZM33.182 32.2871C33.182 31.8211 32.7586 31.5881 32.3071 31.5881C31.8557 31.5881 31.3833 31.8211 31.3833 32.3012V32.8978H33.182V32.2871Z" fill="#1A1A1A"/>
<path d="M39.2459 35.0867C39.2844 34.9949 39.2984 34.9172 39.2984 34.829C39.2984 34.7407 39.2739 34.6348 39.2214 34.543C39.106 34.3736 38.8995 34.2712 38.6055 34.2324C37.1288 33.9994 36.4219 32.9862 36.4219 32.0401C36.4219 30.9881 37.2198 29.9644 38.6965 29.9644C39.3019 29.9644 40.1348 30.1056 40.8172 30.6633L39.9318 31.8954C39.7114 31.6765 39.2494 31.4788 38.8505 31.4788C38.553 31.4788 38.2836 31.62 38.2451 32.0225C38.2066 32.4108 38.8365 32.7214 39.134 32.7603C39.9808 32.9685 41.0482 33.4592 41.0482 34.7301C41.0482 36.1951 39.8898 36.933 38.644 36.933C37.7202 36.933 36.8838 36.6329 36.2539 35.7927L37.1008 34.6242C37.6012 35.1043 38.2451 35.3761 38.707 35.3761C38.9765 35.3761 39.155 35.2738 39.2459 35.0761V35.0867Z" fill="#1A1A1A"/>
<path d="M45.3426 35.0867C45.3811 34.9949 45.3951 34.9172 45.3951 34.829C45.3951 34.7407 45.3706 34.6348 45.3181 34.543C45.2026 34.3736 44.9962 34.2712 44.7022 34.2324C43.2255 33.9994 42.5186 32.9862 42.5186 32.0401C42.5186 30.9881 43.3164 29.9644 44.7932 29.9644C45.3986 29.9644 46.2315 30.1056 46.9139 30.6633L46.0285 31.8954C45.808 31.6765 45.3461 31.4788 44.9472 31.4788C44.6497 31.4788 44.3803 31.62 44.3418 32.0225C44.3033 32.4108 44.9332 32.7214 45.2306 32.7603C46.0775 32.9685 47.1448 33.4592 47.1448 34.7301C47.1448 36.1951 45.9865 36.933 44.7407 36.933C43.8169 36.933 42.9805 36.6329 42.3506 35.7927L43.1975 34.6242C43.6979 35.1043 44.3418 35.3761 44.8037 35.3761C45.0732 35.3761 45.2516 35.2738 45.3426 35.0761V35.0867Z" fill="#1A1A1A"/>
<path d="M59.113 36.8129H57.1323L56.3344 34.7124H53.6223L52.8629 36.8129H50.8438L54.0318 27.6309H55.8445L59.1095 36.8129H59.113ZM54.0982 32.9614H55.848L55.2706 30.9634L54.9871 29.6537H54.8961L54.6127 30.9775L54.0982 32.9614Z" fill="#1A1A1A"/>
<path d="M60.1133 34.5711V32.3542C60.1133 30.7585 61.4641 29.9678 62.7869 29.9678C63.7247 29.9678 64.9705 30.409 65.3065 31.7823L63.7772 32.2624C63.6372 31.7964 63.1998 31.5881 62.7869 31.5881C62.3354 31.5881 61.898 31.86 61.898 32.3401V34.557C61.898 35.0618 62.3354 35.3231 62.7869 35.3231C63.1998 35.3231 63.6477 35.1007 63.8157 34.5959L65.3835 35.1148C64.9075 36.4633 63.7632 36.9434 62.7869 36.9434C61.4641 36.9434 60.1133 36.1668 60.1133 34.5711Z" fill="#1A1A1A"/>
<path d="M68.974 32.626C69.373 32.626 69.7579 32.6896 70.1568 32.8343V32.3542C70.1568 31.6411 69.6809 31.4222 69.128 31.4222C68.6276 31.4222 68.0467 31.694 67.7282 32.0435L66.8534 31.0974C67.5358 30.3067 68.3301 29.9819 69.2575 29.9678C70.5803 29.9678 71.8786 30.7338 71.8786 32.3542V36.4527C71.0947 36.7528 70.1953 36.947 69.373 36.947C67.4833 36.947 66.6084 36.1174 66.6084 34.8218C66.6084 33.265 67.7667 32.6295 68.974 32.6295V32.626ZM68.3056 34.7653C68.3056 35.2454 68.6276 35.5561 69.3485 35.5561C69.6179 35.5561 69.8769 35.5314 70.1079 35.4643V34.1016C69.9014 34.0098 69.5934 33.9463 69.2995 33.9463C68.6171 33.9463 68.3091 34.2852 68.3091 34.7653H68.3056Z" fill="#1A1A1A"/>
<path d="M73.6392 34.6208V32.2485C73.6392 30.847 74.8745 29.9645 76.1064 29.9645C76.5053 29.9645 76.8657 30.0421 77.1982 30.1975V27.6416H78.9969V36.4353C78.1745 36.746 77.2367 36.9401 76.4003 36.9401C75.0005 36.9401 73.7792 36.3576 73.6357 34.6173L73.6392 34.6208ZM76.1344 31.4436C75.7739 31.546 75.48 31.779 75.4275 32.1567V34.7902C75.4415 35.1927 75.7354 35.4398 76.0959 35.5422C76.2358 35.581 76.3933 35.6057 76.5473 35.6057C76.5858 35.6057 76.6383 35.6057 76.6768 35.5916C76.8692 35.5775 77.0512 35.5386 77.2052 35.461V31.5707C77.0652 31.493 76.8972 31.4401 76.7048 31.4154C76.6418 31.4013 76.5648 31.4013 76.4983 31.4013C76.3828 31.4013 76.2533 31.4154 76.1379 31.4401L76.1344 31.4436Z" fill="#1A1A1A"/>
<path d="M80.8271 34.557V32.3401C80.8271 30.7197 82.2024 29.9678 83.5392 29.9678C84.876 29.9678 86.1113 30.642 86.1113 32.2624V34.2322H82.6259V34.5323C82.6259 35.0512 83.1158 35.3231 83.6302 35.3231C84.0431 35.3231 84.4666 35.1677 84.673 34.8183L85.8419 35.6726C85.3414 36.6328 84.2986 36.9434 83.5147 36.9434C82.1779 36.9434 80.8271 36.1527 80.8271 34.557ZM84.4281 32.2871C84.4281 31.8211 84.0047 31.5881 83.5532 31.5881C83.1018 31.5881 82.6294 31.8211 82.6294 32.3012V32.8978H84.4281V32.2871Z" fill="#1A1A1A"/>
<path d="M90.2259 29.9645C90.9083 29.9786 91.6537 30.1869 92.0141 30.7941C92.4376 30.261 93.106 29.9645 93.7359 29.9645C94.9572 29.9645 96.217 30.7305 96.217 32.2485V36.813H94.4427V32.185C94.4427 31.7825 94.0578 31.5884 93.6589 31.5884C93.2599 31.5884 92.861 31.7684 92.861 32.1708V36.813H91.1498V32.2238C91.1498 31.8213 90.6878 31.5884 90.2364 31.5884C89.9914 31.6025 89.7465 31.6801 89.5925 31.8461V36.813H87.8428V30.7941C88.1402 30.5469 88.4972 30.3422 88.9241 30.1833C89.323 30.0421 89.7325 29.9609 90.1594 29.9609H90.2224L90.2259 29.9645Z" fill="#1A1A1A"/>
<path d="M103.454 36.7597C103.454 38.5637 102.272 39.4568 100.69 39.4568C99.8675 39.4568 98.9926 39.1991 98.3627 38.5601L99.2096 37.4305C99.5035 37.7305 100.032 37.9247 100.483 37.9247C101.253 37.9247 101.743 37.5999 101.729 36.7174C101.383 36.8339 100.959 36.9398 100.599 36.9398C99.1466 36.9398 98.1562 36.1737 98.1562 34.7228V30.0947H99.878V34.6981C99.878 35.2312 100.252 35.4889 100.907 35.4889C101.176 35.4889 101.446 35.3971 101.652 35.2806V30.0947H103.451V36.7597H103.454Z" fill="#1A1A1A"/>
</g>
<defs>
<clipPath id="clip0_83_8717">
<rect width="165.143" height="48" fill="white" transform="translate(0.857422)"/>
</clipPath>
</defs>
</svg>
